<svg width="180" height="180" viewBox="0 0 180 180" fill="none" xmlns="http://www.w3.org/2000/svg">
<mask id="mask0" mask-type="alpha" maskUnits="userSpaceOnUse" x="0" y="0" width="180" height="180">
<path d="M179.47 174.751H0V179.9H179.47V174.751Z" fill="#F9E2DB"/>
<path d="M179.47 168.05H0V173.035H179.47V168.05Z" fill="#F9E2DB"/>
<path d="M179.47 161.349H0V166.17H179.47V161.349Z" fill="#F9E2DB"/>
<path d="M179.47 154.648H0V159.306H179.47V154.648Z" fill="#F9E2DB"/>
<path d="M179.47 147.934H0V152.428H179.47V147.934Z" fill="#F9E2DB"/>
<path d="M179.47 141.232H0V145.564H179.47V141.232Z" fill="#F9E2DB"/>
<path d="M179.47 134.532H0V138.699H179.47V134.532Z" fill="#F9E2DB"/>
<path d="M179.47 127.817H0V131.821H179.47V127.817Z" fill="#F9E2DB"/>
<path d="M179.47 121.116H0V124.957H179.47V121.116Z" fill="#F9E2DB"/>
<path d="M179.47 114.415H0V118.093H179.47V114.415Z" fill="#F9E2DB"/>
<path d="M179.47 107.714H0V111.228H179.47V107.714Z" fill="#F9E2DB"/>
<path d="M179.47 101H0V104.35H179.47V101Z" fill="#F9E2DB"/>
<path d="M179.47 94.2981H0V97.4852H179.47V94.2981Z" fill="#F9E2DB"/>
<path d="M179.47 87.5974H0V90.621H179.47V87.5974Z" fill="#F9E2DB"/>
<path d="M179.47 80.8831H0V83.7432H179.47V80.8831Z" fill="#F9E2DB"/>
<path d="M179.47 74.1816H0V76.8784H179.47V74.1816Z" fill="#F9E2DB"/>
<path d="M179.47 67.4807H0V70.014H179.47V67.4807Z" fill="#F9E2DB"/>
<path d="M179.47 60.78H0V63.1499H179.47V60.78Z" fill="#F9E2DB"/>
<path d="M179.47 54.0652H0V56.2716H179.47V54.0652Z" fill="#F9E2DB"/>
<path d="M179.47 47.3643H0V49.4072H179.47V47.3643Z" fill="#F9E2DB"/>
<path d="M179.47 40.6633H0V42.5429H179.47V40.6633Z" fill="#F9E2DB"/>
<path d="M179.47 33.949H0V35.6651H179.47V33.949Z" fill="#F9E2DB"/>
<path d="M179.47 27.2473H0V28.8H179.47V27.2473Z" fill="#F9E2DB"/>
<path d="M179.47 20.5464H0V21.9356H179.47V20.5464Z" fill="#F9E2DB"/>
<path d="M179.47 13.8457H0V15.0715H179.47V13.8457Z" fill="#F9E2DB"/>
<path d="M179.47 7.13062H0V8.19297H179.47V7.13062Z" fill="#F9E2DB"/>
<path d="M179.47 0.429932H0V1.32885H179.47V0.429932Z" fill="#F9E2DB"/>
</mask>
<g mask="url(#mask0)">
<path d="M89.7416 179.913C139.305 179.913 179.483 139.734 179.483 90.1716C179.483 40.6086 139.305 0.429932 89.7416 0.429932C40.1787 0.429932 0 40.6086 0 90.1716C0 139.734 40.1787 179.913 89.7416 179.913Z" fill="#F9E2DB"/>
</g>
</svg>
