<svg width="36" height="36" viewBox="0 0 36 36" fill="none" xmlns="http://www.w3.org/2000/svg">
<path d="M35.8616 10.5786C25.9524 8.73625 18.929 17.4967 18.929 17.4967L18.9403 17.523C18.9403 17.523 30.1014 18.7525 35.8052 10.4432" fill="#C4323C"/>
<path d="M35.8616 25.2946C25.9524 27.1369 18.929 18.3765 18.929 18.3765L18.9403 18.3501C18.9403 18.3501 30.1014 17.1207 35.8052 25.43" fill="#C4323C"/>
<path d="M-1.11287e-08 25.2984C9.90911 27.1407 16.9325 18.3802 16.9325 18.3802L16.9213 18.3539C16.9213 18.3539 5.76011 17.1244 0.056398 25.4337" fill="#C4323C"/>
<path d="M-3.06426e-07 10.5748C9.90911 8.73242 16.9325 17.4948 16.9325 17.4948L16.9213 17.5211C16.9213 17.5211 5.76011 18.7487 0.0563976 10.4394" fill="#C4323C"/>
<path d="M25.4053 0.0564057C17.096 5.75824 18.3255 16.9194 18.3255 16.9194L18.3518 16.9307C18.3518 16.9307 27.1123 9.90724 25.27 7.32304e-06" fill="#C4323C"/>
<path d="M10.4561 35.8203C18.7654 30.1185 17.536 18.9573 17.536 18.9573L17.5096 18.9461C17.5096 18.9461 8.74916 25.9695 10.599 35.8767" fill="#C4323C"/>
<path d="M10.5708 0.00764655C8.72849 9.91676 17.489 16.9402 17.489 16.9402L17.5153 16.9289C17.5153 16.9289 18.7448 5.76776 10.4355 0.0640449" fill="#C4323C"/>
<path d="M25.2906 35.8691C27.1329 25.96 18.3725 18.9366 18.3725 18.9366L18.3462 18.9479C18.3462 18.9479 17.1167 30.109 25.426 35.8127" fill="#C4323C"/>
<path d="M2.91007 17.9384C2.91007 17.3248 2.41264 16.8274 1.79903 16.8274C1.18542 16.8274 0.687988 17.3248 0.687988 17.9384C0.687988 18.552 1.18542 19.0494 1.79903 19.0494C2.41264 19.0494 2.91007 18.552 2.91007 17.9384Z" fill="#E2DEDB"/>
<path d="M35.1736 17.9346C35.1736 17.321 34.6761 16.8236 34.0625 16.8236C33.4489 16.8236 32.9515 17.321 32.9515 17.9346C32.9515 18.5482 33.4489 19.0457 34.0625 19.0457C34.6761 19.0457 35.1736 18.5482 35.1736 17.9346Z" fill="#E2DEDB"/>
<path d="M7.63639 29.344C7.63639 28.7304 7.13896 28.233 6.52535 28.233C5.91174 28.233 5.41431 28.7304 5.41431 29.344C5.41431 29.9576 5.91174 30.4551 6.52535 30.4551C7.13896 30.4551 7.63639 29.9576 7.63639 29.344Z" fill="#E2DEDB"/>
<path d="M30.4472 6.5291C30.4472 5.91549 29.9498 5.41806 29.3362 5.41806C28.7226 5.41806 28.2252 5.91549 28.2252 6.5291C28.2252 7.14271 28.7226 7.64014 29.3362 7.64014C29.9498 7.64014 30.4472 7.14271 30.4472 6.5291Z" fill="#E2DEDB"/>
<path d="M19.0437 34.0682C19.0437 33.4545 18.5463 32.9571 17.9327 32.9571C17.3191 32.9571 16.8217 33.4546 16.8217 34.0682C16.8217 34.6818 17.3191 35.1792 17.9327 35.1792C18.5463 35.1792 19.0437 34.6818 19.0437 34.0682Z" fill="#E2DEDB"/>
<path d="M19.0399 1.80485C19.0399 1.19124 18.5425 0.693817 17.9289 0.693817C17.3153 0.693817 16.8179 1.19124 16.8179 1.80485C16.8179 2.41846 17.3153 2.91589 17.9289 2.91589C18.5425 2.91589 19.0399 2.41846 19.0399 1.80485Z" fill="#E2DEDB"/>
<path d="M30.4492 29.3421C30.4492 28.7285 29.9518 28.231 29.3381 28.231C28.7245 28.231 28.2271 28.7285 28.2271 29.3421C28.2271 29.9557 28.7245 30.4531 29.3381 30.4531C29.9518 30.4531 30.4492 29.9557 30.4492 29.3421Z" fill="#E2DEDB"/>
<path d="M7.63443 6.53105C7.63443 5.91744 7.137 5.42001 6.52339 5.42001C5.90978 5.42001 5.41235 5.91744 5.41235 6.53105C5.41235 7.14466 5.90978 7.64209 6.52339 7.64209C7.137 7.64209 7.63443 7.14466 7.63443 6.53105Z" fill="#E2DEDB"/>
</svg>
