<svg width="20" height="21" viewBox="0 0 20 21" fill="none" xmlns="http://www.w3.org/2000/svg">
<path d="M2.07821e-06 6.71633C5.52583 5.70108 9.44306 10.5308 9.44306 10.5308L9.43677 10.5453C9.43677 10.5453 3.21196 11.2228 0.0314409 6.64174" fill="#E9796F"/>
<path d="M1.9136e-06 14.8302C5.52583 15.8507 9.44306 11.0157 9.44306 11.0157L9.43677 11.0012C9.43677 11.0012 3.21196 10.3237 0.0314407 14.9048" fill="#E9796F"/>
<path d="M20 14.8324C14.4732 15.8508 10.557 11.0179 10.557 11.0179L10.5633 11.0034C10.5633 11.0034 16.7881 10.3258 19.9686 14.907" fill="#E9796F"/>
<path d="M20 6.7151C14.4732 5.69877 10.557 10.5297 10.557 10.5297L10.5633 10.5432C10.5633 10.5432 16.7881 11.2218 19.9686 6.63947" fill="#E9796F"/>
<path d="M5.83079 0.914962C10.4647 4.05921 9.78357 10.213 9.78357 10.213L9.7689 10.2192C9.7689 10.2192 4.87927 6.34669 5.90624 0.883881" fill="#E9796F"/>
<path d="M14.1682 20.634C9.53425 17.4897 10.2196 11.3359 10.2196 11.3359L10.2343 11.3297C10.2343 11.3297 15.1208 15.2022 14.0928 20.665" fill="#E9796F"/>
<path d="M14.1043 0.888847C15.1323 6.35164 10.2458 10.2231 10.2458 10.2231L10.2311 10.218C10.2311 10.218 9.54574 4.06417 14.1797 0.919928" fill="#E9796F"/>
<path d="M5.89583 20.6597C4.8678 15.1969 9.75433 11.3254 9.75433 11.3254L9.769 11.3306C9.769 11.3306 10.4543 17.4844 5.82038 20.6286" fill="#E9796F"/>
</svg>
