<svg width="10" height="10" viewBox="0 0 10 10" fill="none" xmlns="http://www.w3.org/2000/svg">
<path d="M8.66816e-06 2.9045C2.75183 2.39891 4.70258 4.80405 4.70258 4.80405L4.69944 4.81128C4.69944 4.81128 1.59954 5.14868 0.0156647 2.86735" fill="white"/>
<path d="M8.58618e-06 6.94518C2.75183 7.45335 4.70258 5.0456 4.70258 5.0456L4.69944 5.03838C4.69944 5.03838 1.59954 4.70097 0.0156646 6.98232" fill="white"/>
<path d="M9.95984 6.94615C7.20752 7.4533 5.25731 5.04655 5.25731 5.04655L5.26044 5.03932C5.26044 5.03932 8.36032 4.70191 9.94418 6.9833" fill="white"/>
<path d="M9.95984 2.90388C7.20752 2.39776 5.25731 4.80353 5.25731 4.80353L5.26044 4.81024C5.26044 4.81024 8.36032 5.14817 9.94418 2.86622" fill="white"/>
<path d="M2.90368 0.0154718C5.21135 1.58128 4.87214 4.64583 4.87214 4.64583L4.86483 4.64893C4.86483 4.64893 2.42983 2.72043 2.94126 -5.80624e-06" fill="white"/>
<path d="M7.05567 9.83535C4.74799 8.26954 5.08929 5.205 5.08929 5.205L5.0966 5.2019C5.0966 5.2019 7.53005 7.1304 7.0181 9.85083" fill="white"/>
<path d="M7.02383 0.00247478C7.53578 2.7229 5.10233 4.65088 5.10233 4.65088L5.09503 4.6483C5.09503 4.6483 4.75373 1.58376 7.06141 0.0179524" fill="white"/>
<path d="M2.9361 9.84814C2.42415 7.12773 4.8576 5.19975 4.8576 5.19975L4.86491 5.20233C4.86491 5.20233 5.2062 8.26687 2.89852 9.83267" fill="white"/>
</svg>
