<svg width="46" height="47" viewBox="0 0 46 47" fill="none" xmlns="http://www.w3.org/2000/svg">
<path d="M45.9975 13.5757C33.2865 11.2118 24.2788 22.4477 24.2788 22.4477L24.2933 22.4816C24.2933 22.4816 38.6102 24.0584 45.9248 13.4013" fill="#AC404A"/>
<path d="M45.9975 32.4678C33.2865 34.8318 24.2788 23.5934 24.2788 23.5934L24.2933 23.5595C24.2933 23.5595 38.6102 21.9827 45.9248 32.6398" fill="#AC404A"/>
<path d="M-1.42026e-08 32.4678C12.7183 34.8245 21.7162 23.5885 21.7162 23.5885L21.7017 23.5546C21.7017 23.5546 7.38972 21.9778 0.07024 32.6349" fill="#AC404A"/>
<path d="M-3.9299e-07 13.5756C12.7086 11.2117 21.7162 22.45 21.7162 22.45L21.7017 22.4839C21.7017 22.4839 7.38972 24.0607 0.0702396 13.4036" fill="#AC404A"/>
<path d="M32.5791 0.0848461C21.922 7.39948 23.4963 21.7163 23.4963 21.7163L23.5302 21.7163C23.5302 21.7163 34.7686 12.7086 32.4047 7.20863e-05" fill="#AC404A"/>
<path d="M13.411 45.9587C24.068 38.6441 22.4913 24.3272 22.4913 24.3272L22.4574 24.3272C22.4574 24.3272 11.2214 33.3228 13.5853 46.0314" fill="#AC404A"/>
<path d="M13.5587 0.0121765C11.1947 12.7232 22.4331 21.7308 22.4331 21.7308L22.4646 21.7163C22.4646 21.7163 24.0414 7.4019 13.3843 0.0848389" fill="#AC404A"/>
<path d="M32.4388 46.0314C34.8027 33.3204 23.5644 24.3127 23.5644 24.3127L23.5305 24.3272C23.5305 24.3272 21.9537 38.6417 32.6108 45.9587" fill="#AC404A"/>
</svg>
