<svg width="30" height="30" viewBox="0 0 30 30" fill="none" xmlns="http://www.w3.org/2000/svg">
<path d="M29.9598 8.83797C21.6822 7.29956 15.8142 14.618 15.8142 14.618L15.8236 14.64C15.8236 14.64 25.1483 15.6666 29.9127 8.72495" fill="#FFD8D7"/>
<path d="M29.9598 21.1327C21.6822 22.679 15.8142 15.3527 15.8142 15.3527L15.8236 15.3307C15.8236 15.3307 25.1483 14.304 29.9127 21.2457" fill="#FFD8D7"/>
<path d="M-9.33753e-09 21.1359C8.27917 22.679 14.1455 15.3558 14.1455 15.3558L14.1361 15.3339C14.1361 15.3339 4.81146 14.3072 0.0470942 21.2489" fill="#FFD8D7"/>
<path d="M-2.55892e-07 8.83636C8.27917 7.29638 14.1455 14.6164 14.1455 14.6164L14.1361 14.6368C14.1361 14.6368 4.81146 15.665 0.047094 8.72176" fill="#FFD8D7"/>
<path d="M21.2255 0.0470569C14.2838 4.81143 15.3041 14.1361 15.3041 14.1361L15.3261 14.1455C15.3261 14.1455 22.6508 8.27756 21.1124 -3.74495e-05" fill="#FFD8D7"/>
<path d="M8.73597 29.9268C15.6777 25.1624 14.651 15.8378 14.651 15.8378L14.629 15.8283C14.629 15.8283 7.30901 21.6963 8.84899 29.9739" fill="#FFD8D7"/>
<path d="M8.83178 0.0078802C7.2918 8.28548 14.6118 14.1519 14.6118 14.1519L14.6338 14.144C14.6338 14.144 15.6604 4.81934 8.71875 0.0549755" fill="#FFD8D7"/>
<path d="M21.128 29.9661C22.668 21.6885 15.3479 15.8221 15.3479 15.8221L15.326 15.8299C15.326 15.8299 14.2993 25.1546 21.241 29.919" fill="#FFD8D7"/>
</svg>
