<svg width="56" height="56" viewBox="0 0 56 56" fill="none" xmlns="http://www.w3.org/2000/svg">
<path d="M-1.52794e-07 27.529C7.2028 19.8273 20.6888 27.529 20.6888 27.529L20.6888 27.6015C20.6888 27.6015 7.19699 35.3033 -1.49624e-07 27.6015" fill="#70C8BA"/>
<path d="M55.1159 27.6015C47.9131 35.3033 34.4271 27.6015 34.4271 27.6015L34.4271 27.529C34.4271 27.529 47.9131 19.8273 55.1159 27.529" fill="#70C8BA"/>
<path d="M3.66663 41.3168C6.05692 31.0536 21.5851 30.9724 21.5851 30.9724L21.6229 31.0362C21.6229 31.0362 13.7906 44.4468 3.70434 41.3806" fill="#70C8BA"/>
<path d="M51.4494 13.8139C49.0591 24.0858 33.5309 24.1613 33.5309 24.1613L33.4932 24.0974C33.4932 24.0974 41.3254 10.6839 51.4117 13.753" fill="#70C8BA"/>
<path d="M13.7443 51.4204C10.6781 41.3284 24.0771 33.5019 24.0771 33.5019L24.1409 33.5367C24.1409 33.5367 24.0771 49.0678 13.8081 51.4552" fill="#70C8BA"/>
<path d="M41.3718 3.7132C44.438 13.8023 31.039 21.6317 31.039 21.6317L30.9752 21.594C30.9752 21.594 31.0477 6.06578 41.3196 3.67549" fill="#70C8BA"/>
<path d="M27.5203 55.1306C19.8215 47.9249 27.5203 34.4418 27.5203 34.4418L27.5958 34.4418C27.5958 34.4418 35.2946 47.9249 27.5958 55.1306" fill="#70C8BA"/>
<path d="M27.5956 4.75309e-05C35.2945 7.20575 27.5956 20.6918 27.5956 20.6918L27.5202 20.6918C27.5202 20.6918 19.8214 7.20575 27.5202 4.75341e-05" fill="#70C8BA"/>
<path d="M41.308 51.4552C31.039 49.0678 30.9636 33.5367 30.9636 33.5367L31.0274 33.5019C31.0274 33.5019 44.438 41.3342 41.3719 51.4204" fill="#70C8BA"/>
<path d="M13.808 3.67549C24.077 6.06578 24.1524 21.594 24.1524 21.594L24.0886 21.6317C24.0886 21.6317 10.678 13.7994 13.7442 3.7132" fill="#70C8BA"/>
<path d="M51.4117 41.3806C41.3225 44.4468 33.4932 31.0362 33.4932 31.0362L33.5309 30.9724C33.5309 30.9724 49.0591 31.0536 51.4494 41.3168" fill="#70C8BA"/>
<path d="M3.70434 13.753C13.7935 10.6839 21.6229 24.0916 21.6229 24.0916L21.5851 24.1554C21.5851 24.1554 6.05692 24.08 3.66663 13.8081" fill="#70C8BA"/>
<path d="M8.32251 27.5727C12.0936 23.8016 20.683 27.5727 20.683 27.5727L20.683 27.6017C20.683 27.6017 12.1052 31.3873 8.32251 27.6017" fill="#F8D6B5"/>
<path d="M7.08392 27.5667C7.08392 27.1005 6.70598 26.7226 6.23978 26.7226C5.77357 26.7226 5.39563 27.1005 5.39563 27.5667C5.39563 28.033 5.77357 28.4109 6.23978 28.4109C6.70598 28.4109 7.08392 28.033 7.08392 27.5667Z" fill="#F8D6B5"/>
<path d="M4.6065 27.5667C4.6065 27.1005 4.22857 26.7226 3.76236 26.7226C3.29615 26.7226 2.91821 27.1005 2.91821 27.5667C2.91821 28.033 3.29615 28.4109 3.76236 28.4109C4.22857 28.4109 4.6065 28.033 4.6065 27.5667Z" fill="#F8D6B5"/>
<path d="M46.7936 27.5726C43.0225 31.3437 34.4331 27.5726 34.4331 27.5726L34.4331 27.5349C34.4331 27.5349 43.0109 23.7638 46.7936 27.5349" fill="#F8D6B5"/>
<path d="M49.7204 27.5667C49.7204 27.1005 49.3425 26.7226 48.8763 26.7226C48.41 26.7226 48.0321 27.1005 48.0321 27.5667C48.0321 28.033 48.41 28.4109 48.8763 28.4109C49.3425 28.4109 49.7204 28.033 49.7204 27.5667Z" fill="#F8D6B5"/>
<path d="M52.1978 27.5667C52.1978 27.1005 51.8199 26.7226 51.3537 26.7226C50.8875 26.7226 50.5095 27.1005 50.5095 27.5667C50.5095 28.033 50.8875 28.4109 51.3537 28.4109C51.8199 28.4109 52.1978 28.033 52.1978 27.5667Z" fill="#F8D6B5"/>
<path d="M10.8984 37.1831C12.285 32.0138 21.6055 31.0043 21.6055 31.0043L21.6229 31.0363C21.6229 31.0363 16.088 38.5959 10.9187 37.2151" fill="#F8D6B5"/>
<path d="M9.94122 38.2246C9.94122 37.7584 9.56328 37.3804 9.09708 37.3804C8.63087 37.3804 8.25293 37.7584 8.25293 38.2246C8.25293 38.6908 8.63087 39.0687 9.09708 39.0687C9.56328 39.0687 9.94122 38.6908 9.94122 38.2246Z" fill="#F8D6B5"/>
<path d="M7.79449 39.4631C7.79449 38.9969 7.41656 38.619 6.95035 38.619C6.48414 38.619 6.1062 38.9969 6.1062 39.4631C6.1062 39.9293 6.48414 40.3073 6.95035 40.3073C7.41656 40.3073 7.79449 39.9293 7.79449 39.4631Z" fill="#F8D6B5"/>
<path d="M44.2176 17.9476C42.831 23.1169 33.5106 24.1293 33.5106 24.1293L33.4932 24.0974C33.4932 24.0974 39.028 16.532 44.1973 17.9157" fill="#F8D6B5"/>
<path d="M46.8632 16.9062C46.8632 16.44 46.4853 16.0621 46.0191 16.0621C45.5529 16.0621 45.1749 16.44 45.1749 16.9062C45.1749 17.3724 45.5529 17.7504 46.0191 17.7504C46.4853 17.7504 46.8632 17.3724 46.8632 16.9062Z" fill="#F8D6B5"/>
<path d="M49.0098 15.6676C49.0098 15.2014 48.6319 14.8234 48.1657 14.8234C47.6995 14.8234 47.3215 15.2014 47.3215 15.6676C47.3215 16.1338 47.6995 16.5117 48.1657 16.5117C48.6319 16.5117 49.0098 16.1338 49.0098 15.6676Z" fill="#F8D6B5"/>
<path d="M17.9388 44.2235C16.5551 39.0542 24.1205 33.5194 24.1205 33.5194L24.1524 33.5368C24.1524 33.5368 23.14 42.8572 17.9852 44.2438" fill="#F8D6B5"/>
<path d="M17.7444 46.0278C17.7444 45.5616 17.3665 45.1837 16.9003 45.1837C16.4341 45.1837 16.0562 45.5616 16.0562 46.0278C16.0562 46.494 16.4341 46.8719 16.9003 46.8719C17.3665 46.8719 17.7444 46.494 17.7444 46.0278Z" fill="#F8D6B5"/>
<path d="M16.5029 48.1744C16.5029 47.7082 16.1249 47.3303 15.6587 47.3303C15.1925 47.3303 14.8146 47.7082 14.8146 48.1744C14.8146 48.6406 15.1925 49.0186 15.6587 49.0186C16.1249 49.0186 16.5029 48.6406 16.5029 48.1744Z" fill="#F8D6B5"/>
<path d="M37.1772 10.9072C38.5609 16.0765 30.9955 21.6113 30.9955 21.6113L30.9636 21.5939C30.9636 21.5939 31.976 12.2735 37.1453 10.8898" fill="#F8D6B5"/>
<path d="M39.0599 9.10287C39.0599 8.63667 38.6819 8.25873 38.2157 8.25873C37.7495 8.25873 37.3716 8.63667 37.3716 9.10287C37.3716 9.56908 37.7495 9.94702 38.2157 9.94702C38.6819 9.94702 39.0599 9.56908 39.0599 9.10287Z" fill="#F8D6B5"/>
<path d="M40.3014 6.95627C40.3014 6.49006 39.9235 6.11213 39.4573 6.11213C38.9911 6.11213 38.6132 6.49006 38.6132 6.95627C38.6132 7.42248 38.9911 7.80042 39.4573 7.80042C39.9235 7.80041 40.3014 7.42248 40.3014 6.95627Z" fill="#F8D6B5"/>
<path d="M27.5581 46.8024C23.787 43.0313 27.5581 34.4419 27.5581 34.4419L27.5958 34.4419C27.5958 34.4419 31.3669 43.0168 27.5958 46.8024" fill="#F8D6B5"/>
<path d="M28.4022 48.8851C28.4022 48.4189 28.0242 48.041 27.558 48.041C27.0918 48.041 26.7139 48.4189 26.7139 48.8851C26.7139 49.3513 27.0918 49.7292 27.558 49.7292C28.0242 49.7292 28.4022 49.3513 28.4022 48.8851Z" fill="#F8D6B5"/>
<path d="M28.4022 51.3624C28.4022 50.8962 28.0242 50.5183 27.558 50.5183C27.0918 50.5183 26.7139 50.8962 26.7139 51.3624C26.7139 51.8286 27.0918 52.2065 27.558 52.2065C28.0242 52.2065 28.4022 51.8286 28.4022 51.3624Z" fill="#F8D6B5"/>
<path d="M27.558 8.33127C31.3291 12.1024 27.558 20.6918 27.558 20.6918L27.5203 20.6918C27.5203 20.6918 23.7492 12.114 27.5203 8.33127" fill="#F8D6B5"/>
<path d="M28.4022 6.24851C28.4022 5.7823 28.0242 5.40436 27.558 5.40436C27.0918 5.40436 26.7139 5.7823 26.7139 6.24851C26.7139 6.71472 27.0918 7.09265 27.558 7.09265C28.0242 7.09265 28.4022 6.71472 28.4022 6.24851Z" fill="#F8D6B5"/>
<path d="M28.4022 3.76828C28.4022 3.30207 28.0242 2.92413 27.558 2.92413C27.0918 2.92413 26.7139 3.30207 26.7139 3.76828C26.7139 4.23449 27.0918 4.61243 27.558 4.61243C28.0242 4.61243 28.4022 4.23449 28.4022 3.76828Z" fill="#F8D6B5"/>
<path d="M37.1772 44.2235C32.005 42.8398 30.9955 33.5194 30.9955 33.5194L31.0274 33.502C31.0274 33.502 38.5812 39.0368 37.2091 44.2061" fill="#F8D6B5"/>
<path d="M39.0599 46.0278C39.0599 45.5616 38.6819 45.1837 38.2157 45.1837C37.7495 45.1837 37.3716 45.5616 37.3716 46.0278C37.3716 46.494 37.7495 46.8719 38.2157 46.8719C38.6819 46.8719 39.0599 46.494 39.0599 46.0278Z" fill="#F8D6B5"/>
<path d="M40.3014 48.1744C40.3014 47.7082 39.9235 47.3303 39.4573 47.3303C38.9911 47.3303 38.6132 47.7082 38.6132 48.1744C38.6132 48.6406 38.9911 49.0186 39.4573 49.0186C39.9235 49.0186 40.3014 48.6406 40.3014 48.1744Z" fill="#F8D6B5"/>
<path d="M17.9387 10.9073C23.111 12.291 24.1204 21.6114 24.1204 21.6114L24.0885 21.6317C24.0885 21.6317 16.5347 16.094 17.9068 10.9247" fill="#F8D6B5"/>
<path d="M17.7444 9.10287C17.7444 8.63667 17.3665 8.25873 16.9003 8.25873C16.4341 8.25873 16.0562 8.63667 16.0562 9.10287C16.0562 9.56908 16.4341 9.94702 16.9003 9.94702C17.3665 9.94702 17.7444 9.56908 17.7444 9.10287Z" fill="#F8D6B5"/>
<path d="M16.5029 6.95627C16.5029 6.49006 16.1249 6.11213 15.6587 6.11213C15.1925 6.11213 14.8146 6.49006 14.8146 6.95627C14.8146 7.42248 15.1925 7.80042 15.6587 7.80042C16.1249 7.80041 16.5029 7.42248 16.5029 6.95627Z" fill="#F8D6B5"/>
<path d="M44.2175 37.1831C39.0482 38.5697 33.5105 31.0043 33.5105 31.0043L33.5308 30.9724C33.5308 30.9724 42.8512 31.9819 44.2349 37.1454" fill="#F8D6B5"/>
<path d="M46.8632 38.2246C46.8632 37.7584 46.4853 37.3804 46.0191 37.3804C45.5529 37.3804 45.1749 37.7584 45.1749 38.2246C45.1749 38.6908 45.5529 39.0687 46.0191 39.0687C46.4853 39.0687 46.8632 38.6908 46.8632 38.2246Z" fill="#F8D6B5"/>
<path d="M49.0098 39.4631C49.0098 38.9969 48.6319 38.619 48.1657 38.619C47.6995 38.619 47.3215 38.9969 47.3215 39.4631C47.3215 39.9293 47.6995 40.3073 48.1657 40.3073C48.6319 40.3073 49.0098 39.9293 49.0098 39.4631Z" fill="#F8D6B5"/>
<path d="M10.8985 17.9476C16.0678 16.5639 21.6055 24.1293 21.6055 24.1293L21.5852 24.1613C21.5852 24.1613 12.2648 23.1489 10.8811 17.9796" fill="#F8D6B5"/>
<path d="M9.94122 16.9062C9.94122 16.44 9.56328 16.0621 9.09708 16.0621C8.63087 16.0621 8.25293 16.44 8.25293 16.9062C8.25293 17.3724 8.63087 17.7504 9.09708 17.7504C9.56328 17.7504 9.94122 17.3724 9.94122 16.9062Z" fill="#F8D6B5"/>
<path d="M7.79449 15.6676C7.79449 15.2014 7.41656 14.8234 6.95035 14.8234C6.48414 14.8234 6.1062 15.2014 6.1062 15.6676C6.1062 16.1338 6.48414 16.5117 6.95035 16.5117C7.41656 16.5117 7.79449 16.1338 7.79449 15.6676Z" fill="#F8D6B5"/>
<path d="M29.342 27.6016C29.342 26.6163 28.5432 25.8176 27.5579 25.8176C26.5727 25.8176 25.7739 26.6163 25.7739 27.6016C25.7739 28.5869 26.5727 29.3856 27.5579 29.3856C28.5432 29.3856 29.342 28.5869 29.342 27.6016Z" fill="#47659E"/>
<path d="M16.2041 39.0977C17.904 30.3371 26.1859 29.1129 26.1859 29.1129C26.1859 29.1129 24.9647 37.3949 16.2041 39.0977Z" fill="#47659E"/>
<path d="M39.0511 38.9554C30.2935 37.2555 29.0693 28.9736 29.0693 28.9736C29.0693 28.9736 37.3512 30.1833 39.0511 38.9554Z" fill="#47659E"/>
<path d="M38.9119 16.1084C37.212 24.869 28.9301 26.0902 28.9301 26.0902C28.9301 26.0902 30.1513 17.8083 38.9119 16.1084Z" fill="#47659E"/>
<path d="M16.0649 16.2593C24.8226 17.9592 26.0467 26.244 26.0467 26.244C26.0467 26.244 17.7648 25.0083 16.0649 16.2593Z" fill="#47659E"/>
</svg>
