<svg width="46" height="44" viewBox="0 0 46 44" fill="none" xmlns="http://www.w3.org/2000/svg">
<path d="M6.11798e-05 12.7143C12.7111 10.5003 21.7188 21.0234 21.7188 21.0234L21.7042 21.0552C21.7042 21.0552 7.38737 22.5319 0.0727203 12.5509" fill="#D0BED2"/>
<path d="M6.08012e-05 30.4079C12.7111 32.6218 21.7188 22.0965 21.7188 22.0965L21.7042 22.0647C21.7042 22.0647 7.38737 20.588 0.0727199 30.5689" fill="#D0BED2"/>
<path d="M45.9976 30.408C33.2793 32.6151 24.2813 22.092 24.2813 22.092L24.2958 22.0602C24.2958 22.0602 38.6078 20.5835 45.9273 30.5645" fill="#D0BED2"/>
<path d="M45.9976 12.7143C33.289 10.5004 24.2813 21.0258 24.2813 21.0258L24.2958 21.0575C24.2958 21.0575 38.6078 22.5343 45.9273 12.5533" fill="#D0BED2"/>
<path d="M13.4184 0.0794257C24.0755 6.92999 22.5011 20.3385 22.5011 20.3385L22.4672 20.3385C22.4672 20.3385 11.2289 11.9023 13.5928 3.03342e-05" fill="#D0BED2"/>
<path d="M32.5866 43.0429C21.9295 36.1924 23.5063 22.7839 23.5063 22.7839L23.5402 22.7839C23.5402 22.7839 34.7762 31.2087 32.4122 43.111" fill="#D0BED2"/>
<path d="M32.4389 0.0113521C34.8028 11.9159 23.5644 20.3521 23.5644 20.3521L23.533 20.3384C23.533 20.3384 21.9562 6.93223 32.6133 0.0794046" fill="#D0BED2"/>
<path d="M13.5587 43.111C11.1948 31.2064 22.4332 22.7702 22.4332 22.7702L22.4671 22.7838C22.4671 22.7838 24.0439 36.1901 13.3868 43.0429" fill="#D0BED2"/>
</svg>
