<svg width="46" height="44" viewBox="0 0 46 44" fill="none" xmlns="http://www.w3.org/2000/svg">
<path d="M6.11798e-05 12.7142C12.7111 10.5002 21.7188 21.0233 21.7188 21.0233L21.7042 21.0551C21.7042 21.0551 7.38737 22.5318 0.0727203 12.5509" fill="#F5CAA2"/>
<path d="M6.08012e-05 30.4079C12.7111 32.6218 21.7188 22.0964 21.7188 22.0964L21.7042 22.0647C21.7042 22.0647 7.38737 20.5879 0.0727199 30.5689" fill="#F5CAA2"/>
<path d="M45.9976 30.4079C33.2793 32.615 24.2813 22.0919 24.2813 22.0919L24.2958 22.0602C24.2958 22.0602 38.6078 20.5834 45.9273 30.5644" fill="#F5CAA2"/>
<path d="M45.9976 12.7143C33.289 10.5004 24.2813 21.0258 24.2813 21.0258L24.2958 21.0575C24.2958 21.0575 38.6078 22.5343 45.9273 12.5533" fill="#F5CAA2"/>
<path d="M13.4184 0.0793342C24.0755 6.92989 22.5011 20.3384 22.5011 20.3384L22.4672 20.3384C22.4672 20.3384 11.2289 11.9022 13.5928 -6.10072e-05" fill="#F5CAA2"/>
<path d="M32.5866 43.0428C21.9295 36.1922 23.5063 22.7837 23.5063 22.7837L23.5402 22.7837C23.5402 22.7837 34.7762 31.2086 32.4122 43.1108" fill="#F5CAA2"/>
<path d="M32.4389 0.0111993C34.8028 11.9158 23.5644 20.3519 23.5644 20.3519L23.533 20.3383C23.533 20.3383 21.9562 6.93208 32.6133 0.0792519" fill="#F5CAA2"/>
<path d="M13.5587 43.1108C11.1948 31.2063 22.4332 22.7701 22.4332 22.7701L22.4671 22.7837C22.4671 22.7837 24.0439 36.19 13.3868 43.0428" fill="#F5CAA2"/>
</svg>
