<svg width="30" height="29" viewBox="0 0 30 29" fill="none" xmlns="http://www.w3.org/2000/svg">
<path d="M0.000122473 8.27737C8.27777 6.8366 14.1458 13.6905 14.1458 13.6905L14.1363 13.7111C14.1363 13.7111 4.81161 14.6726 0.0472175 8.17151" fill="#FFD8D7"/>
<path d="M0.000122227 19.7919C8.27777 21.2401 14.1458 14.3787 14.1458 14.3787L14.1363 14.3581C14.1363 14.3581 4.81162 13.3966 0.0472172 19.8978" fill="#FFD8D7"/>
<path d="M29.96 19.7951C21.6808 21.2403 15.8145 14.3817 15.8145 14.3817L15.8239 14.3611C15.8239 14.3611 25.1485 13.3996 29.9129 19.9009" fill="#FFD8D7"/>
<path d="M29.96 8.27571C21.6808 6.83339 15.8145 13.6891 15.8145 13.6891L15.8239 13.7083C15.8239 13.7083 25.1485 14.6713 29.9129 8.16838" fill="#FFD8D7"/>
<path d="M8.73458 0.0441372C15.6762 4.50625 14.6558 13.2393 14.6558 13.2393L14.6339 13.2482C14.6339 13.2482 7.30922 7.75249 8.84761 3.01642e-05" fill="#FFD8D7"/>
<path d="M21.2239 28.0282C14.2822 23.5661 15.3089 14.833 15.3089 14.833L15.3308 14.8242C15.3308 14.8242 22.6508 20.3198 21.1108 28.0723" fill="#FFD8D7"/>
<path d="M21.1282 0.00741535C22.6682 7.75985 15.3482 13.254 15.3482 13.254L15.3262 13.2467C15.3262 13.2467 14.2996 4.51362 21.2412 0.0515222" fill="#FFD8D7"/>
<path d="M8.83202 28.0645C7.29205 20.312 14.612 14.8179 14.612 14.8179L14.634 14.8252C14.634 14.8252 15.6607 23.5583 8.719 28.0203" fill="#FFD8D7"/>
</svg>
