<svg width="55" height="52" viewBox="0 0 55 52" fill="none" xmlns="http://www.w3.org/2000/svg">
<path d="M-5.97916e-05 15.0765C15.0792 12.4508 25.7671 24.9363 25.7671 24.9363L25.7499 24.9738C25.7499 24.9738 8.76541 26.7261 0.0857648 14.8836" fill="#7EB8CA"/>
<path d="M-6.02409e-05 36.05C15.0792 38.6757 25.7671 26.1902 25.7671 26.1902L25.7499 26.1527C25.7499 26.1527 8.76541 24.4005 0.0857644 36.2429" fill="#7EB8CA"/>
<path d="M54.5725 36.0554C39.4933 38.6811 28.8054 26.1956 28.8054 26.1956L28.8225 26.1581C28.8225 26.1581 45.807 24.4058 54.4867 36.2483" fill="#7EB8CA"/>
<path d="M54.5725 15.0712C39.4933 12.4455 28.8054 24.9336 28.8054 24.9336L28.8225 24.9711C28.8225 24.9711 45.807 26.7207 54.4867 14.8783" fill="#7EB8CA"/>
<path d="M15.9117 0.0804719C28.5564 8.20675 26.6854 24.1137 26.6854 24.1137L26.6453 24.1298C26.6453 24.1298 13.3141 14.1199 16.1177 9.24277e-05" fill="#7EB8CA"/>
<path d="M38.661 51.0512C26.0163 42.9249 27.8873 27.018 27.8873 27.018L27.9273 27.002C27.9273 27.002 41.2586 37.0118 38.4436 51.1316" fill="#7EB8CA"/>
<path d="M38.4863 0.0109715C41.2899 14.1335 27.9587 24.1433 27.9587 24.1433L27.9186 24.1272C27.9186 24.1272 26.0477 8.22031 38.6923 0.0913509" fill="#7EB8CA"/>
<path d="M16.0864 51.1211C13.2828 36.9986 26.6141 26.9888 26.6141 26.9888L26.6541 27.0049C26.6541 27.0049 28.5251 42.9118 15.8804 51.0407" fill="#7EB8CA"/>
<path d="M50.144 25.5658C50.144 24.6913 50.9009 23.9824 51.8347 23.9824C52.7684 23.9824 53.5254 24.6913 53.5254 25.5658C53.5254 26.4404 52.7684 27.1493 51.8347 27.1493C50.9009 27.1493 50.144 26.4404 50.144 25.5658Z" fill="#E2DEDB"/>
<path d="M1.04724 25.5606C1.04724 24.6861 1.80421 23.9771 2.73798 23.9771C3.67174 23.9771 4.42871 24.6861 4.42871 25.5606C4.42871 26.4351 3.67174 27.144 2.73798 27.144C1.80421 27.144 1.04724 26.4351 1.04724 25.5606Z" fill="#E2DEDB"/>
<path d="M42.9521 41.8213C42.9521 40.9468 43.709 40.2379 44.6428 40.2379C45.5765 40.2379 46.3335 40.9468 46.3335 41.8213C46.3335 42.6958 45.5765 43.4048 44.6428 43.4048C43.709 43.4048 42.9521 42.6958 42.9521 41.8213Z" fill="#E2DEDB"/>
<path d="M8.2392 9.30534C8.2392 8.43082 8.99615 7.72188 9.9299 7.72188C10.8637 7.72188 11.6206 8.43082 11.6206 9.30534C11.6206 10.1799 10.8637 10.8888 9.9299 10.8888C8.99615 10.8888 8.2392 10.1799 8.2392 9.30534Z" fill="#E2DEDB"/>
<path d="M25.5927 48.5541C25.5927 47.6796 26.3496 46.9707 27.2834 46.9707C28.2172 46.9707 28.9741 47.6796 28.9741 48.5541C28.9741 49.4286 28.2172 50.1376 27.2834 50.1376C26.3496 50.1376 25.5927 49.4286 25.5927 48.5541Z" fill="#E2DEDB"/>
<path d="M25.5983 2.57228C25.5983 1.69775 26.3552 0.9888 27.289 0.9888C28.2228 0.9888 28.9797 1.69775 28.9797 2.57228C28.9797 3.44681 28.2228 4.15576 27.289 4.15576C26.3552 4.15576 25.5983 3.44681 25.5983 2.57228Z" fill="#E2DEDB"/>
<path d="M8.23651 41.8186C8.23651 40.9441 8.99347 40.2352 9.92722 40.2352C10.861 40.2352 11.6179 40.9441 11.6179 41.8186C11.6179 42.6932 10.861 43.4021 9.92722 43.4021C8.99347 43.4021 8.23651 42.6932 8.23651 41.8186Z" fill="#E2DEDB"/>
<path d="M42.955 9.30815C42.955 8.43363 43.7119 7.72469 44.6457 7.72469C45.5795 7.72469 46.3364 8.43363 46.3364 9.30815C46.3364 10.1827 45.5795 10.8916 44.6457 10.8916C43.7119 10.8916 42.955 10.1827 42.955 9.30815Z" fill="#E2DEDB"/>
</svg>
