<svg width="74" height="74" viewBox="0 0 74 74" fill="none" xmlns="http://www.w3.org/2000/svg">
<path d="M22.6666 32.081C22.6666 32.081 17.713 24.8719 10.5077 32.081C8.75096 33.8317 6.81595 35.3939 4.73425 36.7421C6.81595 38.0904 8.75096 39.6525 10.5077 41.4032C17.713 48.6124 22.6666 41.4032 22.6666 41.4032" fill="#1C2841"/>
<path d="M50.6102 41.4032C50.6102 41.4032 55.5639 48.6124 62.7691 41.4032C64.5259 39.6525 66.4609 38.0903 68.5426 36.7421C66.4609 35.3939 64.5259 33.8317 62.7691 32.081C55.5639 24.8719 50.6102 32.081 50.6102 32.081" fill="#1C2841"/>
<path d="M25.615 46.511C25.615 46.511 16.897 47.1961 19.5336 57.0418C20.1751 59.4424 20.5621 61.9039 20.6883 64.3856C22.8976 63.2489 25.2196 62.3459 27.6164 61.6913C37.4621 59.0548 33.6978 51.1606 33.6978 51.1606" fill="#1C2841"/>
<path d="M47.6618 26.9735C47.6618 26.9735 56.3797 26.2884 53.7431 16.4427C53.1016 14.0421 52.7146 11.5806 52.5885 9.09889C50.3791 10.2357 48.0572 11.1386 45.6603 11.7932C35.8146 14.4297 39.5789 22.324 39.5789 22.324" fill="#1C2841"/>
<path d="M39.5866 51.172C39.5866 51.172 35.8223 59.0701 45.668 61.7028C48.0649 62.3573 50.3868 63.2603 52.5961 64.3971C52.7223 61.9154 53.1093 59.4539 53.7508 57.0533C56.3874 47.2076 47.6695 46.5225 47.6695 46.5225" fill="#1C2841"/>
<path d="M33.6901 22.3125C33.6901 22.3125 37.4543 14.4182 27.6087 11.7817C25.2118 11.1272 22.8899 10.2242 20.6805 9.08742C20.5544 11.5691 20.1673 14.0306 19.5258 16.4313C16.8893 26.2769 25.6072 26.962 25.6072 26.962" fill="#1C2841"/>
<path d="M14.7069 29.2522C15.4989 28.9644 16.341 28.8399 17.1824 28.8862C18.0238 28.9325 18.8472 29.1486 19.6028 29.5217C11.8664 20.0339 -3.24711e-07 26.7388 -3.24711e-07 26.7388C2.11399 29.8378 4.93976 32.3851 8.24065 34.1674C8.62554 33.8594 8.97965 33.5361 9.34915 33.2051C9.71865 32.8741 10.1189 32.4777 10.5038 32.0928C8.60476 31.083 6.87393 29.7845 5.37316 28.2438C5.37316 28.2438 10.9272 25.996 14.7069 29.2522Z" fill="#55658C"/>
<path d="M14.7069 44.2401C15.4989 44.5279 16.341 44.6524 17.1824 44.6061C18.0238 44.5598 18.8472 44.3437 19.6028 43.9706C11.8664 53.4584 -1.00521e-07 46.7535 -1.00521e-07 46.7535C2.11399 43.6545 4.93976 41.1072 8.24065 39.3249C8.62554 39.6329 8.97965 39.9562 9.34915 40.2872C9.71865 40.6182 10.1189 41.0146 10.5038 41.3995C8.61021 42.4107 6.88466 43.7091 5.38856 45.2485C5.38856 45.2485 10.9272 47.4963 14.7069 44.2401Z" fill="#55658C"/>
<path d="M58.5698 44.2399C57.7778 44.5278 56.9357 44.6523 56.0943 44.606C55.2529 44.5597 54.4295 44.3435 53.6739 43.9705C61.4103 53.4582 73.3036 46.7648 73.3036 46.7648C71.1853 43.664 68.3541 41.1166 65.0476 39.3363C64.6627 39.6442 64.3086 39.9676 63.9391 40.2986C63.5696 40.6296 63.1693 41.026 62.7844 41.4109C64.6835 42.4207 66.4143 43.7192 67.9151 45.2599C67.9151 45.2599 62.3533 47.4961 58.5698 44.2399Z" fill="#55658C"/>
<path d="M58.5698 29.2521C57.7778 28.9642 56.9357 28.8397 56.0943 28.886C55.2529 28.9323 54.4295 29.1485 53.6739 29.5215C61.4103 20.0338 73.3036 26.7271 73.3036 26.7271C71.1853 29.8279 68.3541 32.3754 65.0476 34.1556C64.6627 33.8477 64.3086 33.5244 63.9391 33.1934C63.5696 32.8624 63.1693 32.4659 62.7844 32.081C64.6835 31.0713 66.4143 29.7728 67.9151 28.2321C67.9151 28.2321 62.3533 25.9958 58.5698 29.2521Z" fill="#55658C"/>
<path d="M19.1833 51.9918C19.3307 51.1604 19.6456 50.3677 20.1087 49.6617C20.5719 48.9557 21.1737 48.3512 21.8776 47.8849C9.78024 49.8325 9.62244 63.4733 9.62244 63.4733C13.3636 63.191 16.9826 62.0164 20.1763 60.0477C20.0955 59.5743 19.9993 59.0931 19.8953 58.612C19.7914 58.1309 19.6567 57.5689 19.5104 57.0455C17.6969 58.1843 15.7183 59.036 13.6446 59.5704C13.6446 59.5704 14.4721 53.6391 19.1833 51.9918Z" fill="#55658C"/>
<path d="M32.1658 59.4858C32.8107 58.9432 33.3391 58.2758 33.7195 57.5237C34.0998 56.7717 34.3241 55.9505 34.379 55.1095C38.7283 66.5563 26.9928 73.4922 26.9928 73.4922C25.3689 70.1113 24.5771 66.3911 24.6834 62.6419C25.1376 62.4764 25.5995 62.3148 26.0729 62.1647C26.5463 62.0146 27.0929 61.8529 27.6125 61.7105C27.5386 63.8583 27.7983 66.0046 28.3823 68.0728C28.3823 68.0728 33.1011 64.3894 32.1658 59.4858Z" fill="#55658C"/>
<path d="M54.0934 21.5003C53.9453 22.3315 53.6302 23.124 53.1671 23.8299C52.704 24.5357 52.1026 25.1404 51.3991 25.6072C63.4849 23.6481 63.6234 10.0188 63.6234 10.0188C59.8823 10.3011 56.2633 11.4757 53.0696 13.4444C53.1504 13.9179 53.2466 14.399 53.3505 14.8801C53.4545 15.3612 53.5892 15.9232 53.7354 16.4466C55.5549 15.306 57.5402 14.4543 59.6205 13.9217C59.6205 13.9217 58.8045 19.853 54.0934 21.5003Z" fill="#55658C"/>
<path d="M41.1109 14.0063C40.466 14.5489 39.9375 15.2163 39.5572 15.9683C39.1768 16.7204 38.9525 17.5416 38.8977 18.3826C34.5522 6.93573 46.2839 -0.000112899 46.2839 -0.000112899C47.9077 3.38078 48.6996 7.10099 48.5933 10.8501C48.1391 11.0156 47.6772 11.1773 47.2076 11.3274C46.738 11.4775 46.1876 11.6392 45.668 11.7816C45.7419 9.63376 45.4822 7.48747 44.8982 5.41924C44.8982 5.41924 40.1833 9.1027 41.1109 14.0063Z" fill="#55658C"/>
<path d="M41.1109 59.4858C40.466 58.9432 39.9375 58.2758 39.5572 57.5237C39.1768 56.7717 38.9525 55.9505 38.8977 55.1095C34.5522 66.5563 46.2839 73.4922 46.2839 73.4922C47.9077 70.1113 48.6996 66.3911 48.5933 62.6419C48.1391 62.4764 47.6772 62.3148 47.2076 62.1647C46.738 62.0146 46.1876 61.8529 45.668 61.7105C45.7419 63.8583 45.4822 66.0046 44.8982 68.0728C44.8982 68.0728 40.1833 64.3894 41.1109 59.4858Z" fill="#55658C"/>
<path d="M54.0934 51.9918C53.9453 51.1606 53.6302 50.3682 53.1671 49.6623C52.704 48.9564 52.1026 48.3517 51.3991 47.8849C63.508 49.8325 63.6388 63.4733 63.6388 63.4733C59.8977 63.191 56.2787 62.0164 53.085 60.0477C53.1658 59.5743 53.262 59.0931 53.3659 58.612C53.4699 58.1309 53.6046 57.5689 53.7508 57.0455C55.5703 58.1861 57.5556 59.0378 59.6359 59.5704C59.6359 59.5704 58.8045 53.6391 54.0934 51.9918Z" fill="#55658C"/>
<path d="M32.1658 14.0063C32.8107 14.5489 33.3391 15.2163 33.7195 15.9683C34.0998 16.7204 34.3241 17.5416 34.379 18.3826C38.7283 6.93573 26.9928 -0.000112635 26.9928 -0.000112635C25.3689 3.38078 24.5771 7.10099 24.6834 10.8501C25.1376 11.0156 25.5995 11.1773 26.0729 11.3274C26.5463 11.4775 27.0929 11.6392 27.6125 11.7816C27.5386 9.63376 27.7983 7.48747 28.3823 5.41924C28.3823 5.41924 33.1011 9.1027 32.1658 14.0063Z" fill="#55658C"/>
<path d="M19.1833 21.5003C19.3307 22.3317 19.6456 23.1244 20.1087 23.8304C20.5719 24.5364 21.1737 25.1409 21.8776 25.6072C9.78024 23.6596 9.62244 10.0188 9.62244 10.0188C13.3636 10.3011 16.9826 11.4757 20.1763 13.4444C20.0955 13.9179 19.9993 14.399 19.8953 14.8801C19.7914 15.3612 19.6567 15.9232 19.5104 16.4466C17.691 15.306 15.7057 14.4543 13.6254 13.9217C13.6254 13.9217 14.4721 19.853 19.1833 21.5003Z" fill="#55658C"/>
<path d="M14.707 29.2521C10.9273 25.9959 5.37708 28.2437 5.37708 28.2437C6.87785 29.7844 8.60868 31.0829 10.5078 32.0927C11.6724 30.8377 13.1088 29.866 14.707 29.2521Z" fill="#E9796F"/>
<path d="M14.7069 44.2401C10.9272 47.4963 5.38855 45.2485 5.38855 45.2485C6.88932 43.7078 8.62015 42.4093 10.5192 41.3995C11.6805 42.653 13.1129 43.6246 14.7069 44.2401Z" fill="#E9796F"/>
<path d="M58.5698 44.2401C62.3495 47.4963 67.8997 45.2485 67.8997 45.2485C66.399 43.7078 64.6681 42.4093 62.7691 41.3995C61.6045 42.6545 60.168 43.6261 58.5698 44.2401Z" fill="#E9796F"/>
<path d="M58.5698 29.2521C62.3495 25.9959 67.8997 28.2437 67.8997 28.2437C66.399 29.7844 64.6681 31.0829 62.7691 32.0927C61.6045 30.8377 60.168 29.866 58.5698 29.2521Z" fill="#E9796F"/>
<path d="M19.1833 51.9919C14.4722 53.6393 13.6447 59.5706 13.6447 59.5706C15.725 59.038 17.7103 58.1862 19.5297 57.0456C19.0332 55.409 18.9147 53.681 19.1833 51.9919Z" fill="#E9796F"/>
<path d="M32.166 59.4858C33.1013 64.3894 28.3709 68.0729 28.3709 68.0729C27.7869 66.0046 27.5272 63.8584 27.6011 61.7105C29.2718 61.3249 30.8328 60.5641 32.166 59.4858Z" fill="#E9796F"/>
<path d="M54.0934 21.5002C58.8045 19.8529 59.632 13.9216 59.632 13.9216C57.5517 14.4542 55.5664 15.3059 53.7469 16.4465C54.2435 18.0832 54.3619 19.8112 54.0934 21.5002Z" fill="#E9796F"/>
<path d="M41.1108 14.0063C40.1832 9.10276 44.9059 5.4193 44.9059 5.4193C45.4899 7.48753 45.7496 9.63382 45.6757 11.7816C44.005 12.1673 42.444 12.9281 41.1108 14.0063Z" fill="#E9796F"/>
<path d="M41.1108 59.4858C40.1832 64.3894 44.9059 68.0729 44.9059 68.0729C45.4899 66.0046 45.7496 63.8584 45.6757 61.7105C44.005 61.3249 42.444 60.5641 41.1108 59.4858Z" fill="#E9796F"/>
<path d="M54.0934 51.9919C58.8045 53.6393 59.632 59.5706 59.632 59.5706C57.5517 59.038 55.5664 58.1862 53.7469 57.0456C54.2435 55.409 54.3619 53.681 54.0934 51.9919Z" fill="#E9796F"/>
<path d="M32.166 14.0063C33.0936 9.10276 28.3709 5.4193 28.3709 5.4193C27.7869 7.48753 27.5272 9.63382 27.6011 11.7816C29.2718 12.1673 30.8328 12.9281 32.166 14.0063Z" fill="#E9796F"/>
<path d="M19.1833 21.5002C14.4722 19.8529 13.6447 13.9216 13.6447 13.9216C15.725 14.4542 17.7103 15.3059 19.5297 16.4465C19.0332 18.0832 18.9147 19.8112 19.1833 21.5002Z" fill="#E9796F"/>
<path d="M51.403 36.6268C51.403 28.4725 44.7926 21.8622 36.6383 21.8622C28.484 21.8622 21.8737 28.4725 21.8737 36.6268C21.8737 44.7811 28.484 51.3915 36.6383 51.3915C44.7926 51.3915 51.403 44.7811 51.403 36.6268Z" fill="#8AC1B1"/>
<path d="M47.5118 36.6268C47.5118 30.6216 42.6436 25.7534 36.6384 25.7534C30.6332 25.7534 25.7651 30.6216 25.7651 36.6268C25.7651 42.632 30.6332 47.5001 36.6384 47.5001C42.6436 47.5001 47.5118 42.632 47.5118 36.6268Z" fill="#F59A96"/>
<path d="M32.5045 36.6268C32.5045 35.7765 31.8152 35.0872 30.9649 35.0872C30.1146 35.0872 29.4253 35.7765 29.4253 36.6268C29.4253 37.4771 30.1146 38.1664 30.9649 38.1664C31.8152 38.1664 32.5045 37.4771 32.5045 36.6268Z" fill="#FADEBA"/>
<path d="M43.8512 36.6268C43.8512 35.7765 43.1619 35.0872 42.3116 35.0872C41.4613 35.0872 40.772 35.7765 40.772 36.6268C40.772 37.4771 41.4613 38.1664 42.3116 38.1664C43.1619 38.1664 43.8512 37.4771 43.8512 36.6268Z" fill="#FADEBA"/>
<path d="M38.1779 42.3001C38.1779 41.4498 37.4886 40.7605 36.6383 40.7605C35.7881 40.7605 35.0988 41.4498 35.0988 42.3001C35.0988 43.1504 35.7881 43.8397 36.6383 43.8397C37.4886 43.8397 38.1779 43.1504 38.1779 42.3001Z" fill="#FADEBA"/>
<path d="M38.1779 30.9495C38.1779 30.0993 37.4886 29.41 36.6383 29.41C35.7881 29.41 35.0988 30.0993 35.0988 30.9495C35.0988 31.7998 35.7881 32.4891 36.6383 32.4891C37.4886 32.4891 38.1779 31.7998 38.1779 30.9495Z" fill="#FADEBA"/>
<path d="M42.1885 40.6374C42.1885 39.7871 41.4992 39.0978 40.6489 39.0978C39.7986 39.0978 39.1093 39.7871 39.1093 40.6374C39.1093 41.4877 39.7986 42.177 40.6489 42.177C41.4992 42.177 42.1885 41.4877 42.1885 40.6374Z" fill="#FADEBA"/>
<path d="M34.1673 32.6121C34.1673 31.7619 33.478 31.0726 32.6277 31.0726C31.7774 31.0726 31.0881 31.7619 31.0881 32.6121C31.0881 33.4624 31.7774 34.1517 32.6277 34.1517C33.478 34.1517 34.1673 33.4624 34.1673 32.6121Z" fill="#FADEBA"/>
<path d="M34.1673 40.6374C34.1673 39.7871 33.478 39.0978 32.6277 39.0978C31.7774 39.0978 31.0881 39.7871 31.0881 40.6374C31.0881 41.4877 31.7774 42.177 32.6277 42.177C33.478 42.177 34.1673 41.4877 34.1673 40.6374Z" fill="#FADEBA"/>
<path d="M42.1885 32.6121C42.1885 31.7619 41.4992 31.0726 40.6489 31.0726C39.7986 31.0726 39.1093 31.7619 39.1093 32.6121C39.1093 33.4624 39.7986 34.1517 40.6489 34.1517C41.4992 34.1517 42.1885 33.4624 42.1885 32.6121Z" fill="#FADEBA"/>
</svg>
