<svg width="10" height="10" viewBox="0 0 10 10" fill="none" xmlns="http://www.w3.org/2000/svg">
<path d="M1.03876e-06 2.91158C2.75182 2.40599 4.70257 4.81113 4.70257 4.81113L4.69944 4.81836C4.69944 4.81836 1.59953 5.15576 0.015657 2.87443" fill="#EFA298"/>
<path d="M9.56789e-07 6.95226C2.75182 7.46043 4.70257 5.05268 4.70257 5.05268L4.69944 5.04546C4.69944 5.04546 1.59953 4.70805 0.0156569 6.9894" fill="#EFA298"/>
<path d="M9.95984 6.95323C7.20752 7.46038 5.25731 5.05363 5.25731 5.05363L5.26044 5.0464C5.26044 5.0464 8.36032 4.70899 9.94418 6.99038" fill="#EFA298"/>
<path d="M9.95984 2.91096C7.20752 2.40484 5.25731 4.81061 5.25731 4.81061L5.26044 4.81732C5.26044 4.81732 8.36032 5.15525 9.94418 2.8733" fill="#EFA298"/>
<path d="M2.90369 0.0225519C5.21136 1.58836 4.87215 4.65291 4.87215 4.65291L4.86484 4.65601C4.86484 4.65601 2.42984 2.72751 2.94127 0.00707427" fill="#EFA298"/>
<path d="M7.05566 9.84243C4.74798 8.27662 5.08928 5.21208 5.08928 5.21208L5.09659 5.20898C5.09659 5.20898 7.53004 7.13748 7.01809 9.85791" fill="#EFA298"/>
<path d="M7.02381 0.00955534C7.53576 2.72998 5.10231 4.65796 5.10231 4.65796L5.095 4.65538C5.095 4.65538 4.75371 1.59084 7.06139 0.025033" fill="#EFA298"/>
<path d="M2.93607 9.85522C2.42412 7.13481 4.85757 5.20683 4.85757 5.20683L4.86488 5.20941C4.86488 5.20941 5.20617 8.27395 2.89849 9.83975" fill="#EFA298"/>
</svg>
