<svg width="36" height="36" viewBox="0 0 36 36" fill="none" xmlns="http://www.w3.org/2000/svg">
<path d="M35.4496 10.5209C25.8426 8.73473 19.0333 17.2281 19.0333 17.2281L19.0443 17.2536C19.0443 17.2536 29.8651 18.4456 35.395 10.3897" fill="#C0E2E4"/>
<path d="M35.4496 24.7884C25.8426 26.5746 19.0333 18.0812 19.0333 18.0812L19.0443 18.0557C19.0443 18.0557 29.8651 16.8637 35.395 24.9197" fill="#C0E2E4"/>
<path d="M0.681396 24.792C10.2884 26.5781 17.0977 18.0848 17.0977 18.0848L17.0868 18.0592C17.0868 18.0592 6.2659 16.8672 0.736075 24.9232" fill="#C0E2E4"/>
<path d="M0.681396 10.5172C10.2884 8.73107 17.0977 17.2263 17.0977 17.2263L17.0868 17.2518C17.0868 17.2518 6.2659 18.442 0.736075 10.386" fill="#C0E2E4"/>
<path d="M25.3122 0.319627C17.2563 5.84763 18.4483 16.6685 18.4483 16.6685L18.4738 16.6794C18.4738 16.6794 26.9672 9.87014 25.181 0.26495" fill="#C0E2E4"/>
<path d="M10.8187 34.9932C18.8747 29.4652 17.6827 18.6443 17.6827 18.6443L17.6572 18.6334C17.6572 18.6334 9.16377 25.4427 10.9572 35.0479" fill="#C0E2E4"/>
<path d="M10.9299 0.272402C9.14377 9.87942 17.6372 16.6887 17.6372 16.6887L17.6627 16.6778C17.6627 16.6778 18.8547 5.8569 10.7987 0.327082" fill="#C0E2E4"/>
<path d="M25.201 35.0405C26.9872 25.4335 18.4938 18.6242 18.4938 18.6242L18.4683 18.6351C18.4683 18.6351 17.2763 29.456 25.3323 34.9858" fill="#C0E2E4"/>
<path d="M3.50284 17.6564C3.50284 17.0614 3.02058 16.5792 2.42568 16.5792C1.83077 16.5792 1.34851 17.0614 1.34851 17.6564C1.34851 18.2513 1.83077 18.7335 2.42568 18.7335C3.02058 18.7335 3.50284 18.2513 3.50284 17.6564Z" fill="#E2DEDB"/>
<path d="M34.7826 17.6527C34.7826 17.0578 34.3003 16.5755 33.7054 16.5755C33.1105 16.5755 32.6282 17.0578 32.6282 17.6527C32.6282 18.2476 33.1105 18.7299 33.7054 18.7299C34.3003 18.7299 34.7826 18.2476 34.7826 17.6527Z" fill="#E2DEDB"/>
<path d="M8.08488 28.7143C8.08488 28.1194 7.60261 27.6372 7.00771 27.6372C6.41281 27.6372 5.93054 28.1194 5.93054 28.7143C5.93054 29.3092 6.41281 29.7915 7.00771 29.7915C7.60261 29.7915 8.08488 29.3092 8.08488 28.7143Z" fill="#E2DEDB"/>
<path d="M30.2004 6.59507C30.2004 6.00017 29.7182 5.51791 29.1232 5.51791C28.5283 5.51791 28.0461 6.00017 28.0461 6.59507C28.0461 7.18998 28.5283 7.67224 29.1232 7.67224C29.7182 7.67224 30.2004 7.18998 30.2004 6.59507Z" fill="#E2DEDB"/>
<path d="M19.1446 33.2945C19.1446 32.6996 18.6623 32.2174 18.0674 32.2174C17.4725 32.2174 16.9902 32.6996 16.9902 33.2945C16.9902 33.8894 17.4725 34.3717 18.0674 34.3717C18.6623 34.3717 19.1446 33.8894 19.1446 33.2945Z" fill="#E2DEDB"/>
<path d="M19.1409 2.01475C19.1409 1.41985 18.6586 0.937586 18.0637 0.937586C17.4688 0.937586 16.9866 1.41985 16.9866 2.01475C16.9866 2.60965 17.4688 3.09192 18.0637 3.09192C18.6586 3.09192 19.1409 2.60965 19.1409 2.01475Z" fill="#E2DEDB"/>
<path d="M30.2022 28.7125C30.2022 28.1176 29.72 27.6353 29.1251 27.6353C28.5302 27.6353 28.0479 28.1176 28.0479 28.7125C28.0479 29.3074 28.5302 29.7897 29.1251 29.7897C29.72 29.7897 30.2022 29.3074 30.2022 28.7125Z" fill="#E2DEDB"/>
<path d="M8.08304 6.59691C8.08304 6.002 7.60078 5.51974 7.00588 5.51974C6.41097 5.51974 5.92871 6.002 5.92871 6.59691C5.92871 7.19181 6.41098 7.67407 7.00588 7.67407C7.60078 7.67407 8.08304 7.19181 8.08304 6.59691Z" fill="#E2DEDB"/>
</svg>
