<svg width="26" height="25" viewBox="0 0 26 25" fill="none" xmlns="http://www.w3.org/2000/svg">
<path d="M0.819012 7.11627C7.56112 5.87756 12.3406 11.7703 12.3406 11.7703L12.3329 11.788C12.3329 11.788 4.73795 12.6146 0.857371 7.02526" fill="#F5CBC1"/>
<path d="M0.819012 17.0161C7.56112 18.2612 12.3406 12.362 12.3406 12.362L12.3329 12.3444C12.3329 12.3444 4.73795 11.5177 0.85737 17.1071" fill="#F5CBC1"/>
<path d="M25.2212 17.0189C18.4778 18.2614 13.6997 12.3648 13.6997 12.3648L13.7074 12.3471C13.7074 12.3471 21.3023 11.5204 25.1828 17.1099" fill="#F5CBC1"/>
<path d="M25.2212 7.11496C18.4778 5.87492 13.6997 11.7692 13.6997 11.7692L13.7074 11.7856C13.7074 11.7856 21.3023 12.6136 25.1828 7.02268" fill="#F5CBC1"/>
<path d="M7.93321 0.0379188C13.5871 3.87424 12.756 11.3826 12.756 11.3826L12.7381 11.3901C12.7381 11.3901 6.77226 6.66521 8.02527 -2.11364e-06" fill="#F5CBC1"/>
<path d="M18.1058 24.0973C12.4518 20.261 13.288 12.7527 13.288 12.7527L13.3059 12.7451C13.3059 12.7451 19.268 17.47 18.0137 24.1353" fill="#F5CBC1"/>
<path d="M18.0277 0.00617313C19.282 6.67137 13.3199 11.395 13.3199 11.395L13.302 11.3887C13.302 11.3887 12.4658 3.8804 18.1198 0.044095" fill="#F5CBC1"/>
<path d="M8.01254 24.1287C6.75824 17.4635 12.7203 12.7398 12.7203 12.7398L12.7382 12.7462C12.7382 12.7462 13.5744 20.2544 7.92048 24.0907" fill="#F5CBC1"/>
</svg>
