<svg width="17" height="16" viewBox="0 0 17 16" fill="none" xmlns="http://www.w3.org/2000/svg">
<path d="M3.95173e-06 4.67771C4.43176 3.86347 7.57341 7.73691 7.57341 7.73691L7.56837 7.74854C7.56837 7.74854 2.57602 8.29192 0.0252181 4.61788" fill="#F9E2DB"/>
<path d="M3.81971e-06 11.1851C4.43176 12.0035 7.57341 8.12589 7.57341 8.12589L7.56837 8.11426C7.56837 8.11426 2.57602 7.57087 0.025218 11.245" fill="#F9E2DB"/>
<path d="M16.0402 11.187C11.6076 12.0037 8.46682 8.1277 8.46682 8.1277L8.47186 8.11606C8.47186 8.11606 13.4642 7.57267 16.0149 11.2468" fill="#F9E2DB"/>
<path d="M16.0402 4.67682C11.6076 3.86172 8.46682 7.73617 8.46682 7.73617L8.47186 7.74697C8.47186 7.74697 13.4642 8.29121 16.0149 4.61617" fill="#F9E2DB"/>
<path d="M4.67634 0.0249556C8.3928 2.54667 7.84651 7.48208 7.84651 7.48208L7.83474 7.48706C7.83474 7.48706 3.91322 4.38124 4.73685 2.94283e-05" fill="#F9E2DB"/>
<path d="M11.363 15.8398C7.64655 13.3181 8.1962 8.3827 8.1962 8.3827L8.20797 8.37772C8.20797 8.37772 12.127 11.4835 11.3025 15.8647" fill="#F9E2DB"/>
<path d="M11.3117 0.00405311C12.1362 4.38526 8.21719 7.49023 8.21719 7.49023L8.20542 7.48608C8.20542 7.48608 7.65576 2.55068 11.3722 0.0289798" fill="#F9E2DB"/>
<path d="M4.7285 15.8604C3.90402 11.4792 7.82305 8.37419 7.82305 8.37419L7.83482 8.37835C7.83482 8.37835 8.38447 13.3137 4.66799 15.8354" fill="#F9E2DB"/>
</svg>
