<svg width="26" height="26" viewBox="0 0 26 26" fill="none" xmlns="http://www.w3.org/2000/svg">
<path d="M25.7756 7.87811C18.8331 6.58698 13.9133 12.7238 13.9133 12.7238L13.9213 12.7423C13.9213 12.7423 21.7408 13.6035 25.7359 7.78286" fill="#96B2CD"/>
<path d="M25.7756 18.1967C18.8331 19.4878 13.9133 13.3496 13.9133 13.3496L13.9213 13.3311C13.9213 13.3311 21.7408 12.4699 25.7359 18.2906" fill="#96B2CD"/>
<path d="M0.652832 18.1967C7.59926 19.4838 12.5138 13.347 12.5138 13.347L12.5058 13.3285C12.5058 13.3285 4.68893 12.4673 0.691196 18.288" fill="#96B2CD"/>
<path d="M0.652832 7.87813C7.59397 6.587 12.5138 12.7252 12.5138 12.7252L12.5058 12.7437C12.5058 12.7437 4.68893 13.6049 0.691195 7.7842" fill="#96B2CD"/>
<path d="M18.4468 0.509722C12.6261 4.50481 13.486 12.3243 13.486 12.3243L13.5045 12.3243C13.5045 12.3243 19.6427 7.40456 18.3516 0.463422" fill="#96B2CD"/>
<path d="M7.97765 25.565C13.7983 21.57 12.9371 13.7504 12.9371 13.7504L12.9186 13.7504C12.9186 13.7504 6.78177 18.6636 8.0729 25.6047" fill="#96B2CD"/>
<path d="M8.05834 0.470034C6.76721 7.41249 12.9054 12.3323 12.9054 12.3323L12.9226 12.3243C12.9226 12.3243 13.7838 4.50613 7.96309 0.509721" fill="#96B2CD"/>
<path d="M18.3702 25.6047C19.6613 18.6623 13.5231 13.7425 13.5231 13.7425L13.5046 13.7504C13.5046 13.7504 12.6434 21.5686 18.4641 25.565" fill="#96B2CD"/>
</svg>
