<svg width="47" height="47" viewBox="0 0 47 47" fill="none" xmlns="http://www.w3.org/2000/svg">
<path d="M46.5197 14.4985C33.8087 12.1346 24.801 23.3706 24.801 23.3706L24.8156 23.4045C24.8156 23.4045 39.1324 24.9812 46.447 14.3242" fill="#E1E1E1"/>
<path d="M46.5197 33.3908C33.8087 35.7547 24.801 24.5163 24.801 24.5163L24.8156 24.4824C24.8156 24.4824 39.1324 22.9057 46.447 33.5628" fill="#E1E1E1"/>
<path d="M0.522217 33.3908C13.2405 35.7474 22.2385 24.5115 22.2385 24.5115L22.2239 24.4776C22.2239 24.4776 7.91194 22.9008 0.592457 33.5579" fill="#E1E1E1"/>
<path d="M0.522216 14.4987C13.2308 12.1348 22.2385 23.3731 22.2385 23.3731L22.2239 23.407C22.2239 23.407 7.91194 24.9838 0.592456 14.3267" fill="#E1E1E1"/>
<path d="M33.1013 1.00782C22.4442 8.32246 24.0185 22.6393 24.0185 22.6393L24.0524 22.6393C24.0524 22.6393 35.2908 13.6316 32.9269 0.923046" fill="#E1E1E1"/>
<path d="M13.9332 46.8817C24.5903 39.567 23.0135 25.2502 23.0135 25.2502L22.9796 25.2502C22.9796 25.2502 11.7436 34.2458 14.1076 46.9543" fill="#E1E1E1"/>
<path d="M14.0809 0.935028C11.717 13.646 22.9553 22.6537 22.9553 22.6537L22.9868 22.6392C22.9868 22.6392 24.5636 8.32475 13.9065 1.00769" fill="#E1E1E1"/>
<path d="M32.961 46.9543C35.325 34.2433 24.0866 25.2357 24.0866 25.2357L24.0527 25.2502C24.0527 25.2502 22.4759 39.5646 33.133 46.8817" fill="#E1E1E1"/>
</svg>
