<svg width="55" height="55" viewBox="0 0 55 55" fill="none" xmlns="http://www.w3.org/2000/svg">
<path d="M54.5725 16.0979C39.4933 13.2943 28.8054 26.6256 28.8054 26.6256L28.8226 26.6656C28.8226 26.6656 45.8071 28.5366 54.4867 15.8919" fill="#C4323C"/>
<path d="M54.5725 38.4921C39.4933 41.2957 28.8054 27.9644 28.8054 27.9644L28.8226 27.9243C28.8226 27.9243 45.8071 26.0534 54.4867 38.6981" fill="#C4323C"/>
<path d="M-1.69352e-08 38.4978C15.0792 41.3014 25.7671 27.9701 25.7671 27.9701L25.75 27.9301C25.75 27.9301 8.76546 26.0591 0.0858237 38.7038" fill="#C4323C"/>
<path d="M-4.66304e-07 16.0922C15.0792 13.2886 25.7671 26.6228 25.7671 26.6228L25.75 26.6628C25.75 26.6628 8.76546 28.5309 0.0858232 15.8862" fill="#C4323C"/>
<path d="M38.6608 0.0858474C26.0162 8.76262 27.8871 25.7471 27.8871 25.7471L27.9272 25.7643C27.9272 25.7643 41.2584 15.0764 38.4549 2.2422e-05" fill="#C4323C"/>
<path d="M15.9116 54.5096C28.5563 45.8329 26.6854 28.8484 26.6854 28.8484L26.6453 28.8312C26.6453 28.8312 13.314 39.5191 16.129 54.5955" fill="#C4323C"/>
<path d="M16.0862 0.0116844C13.2826 15.0909 26.6139 25.7788 26.6139 25.7788L26.6539 25.7616C26.6539 25.7616 28.5249 8.77714 15.8802 0.0975094" fill="#C4323C"/>
<path d="M38.4861 54.584C41.2897 39.5048 27.9584 28.8169 27.9584 28.8169L27.9184 28.834C27.9184 28.834 26.0474 45.8185 38.6921 54.4982" fill="#C4323C"/>
<path d="M4.42857 27.2978C4.42857 26.364 3.67161 25.6071 2.73784 25.6071C1.80408 25.6071 1.04712 26.364 1.04712 27.2978C1.04712 28.2316 1.80408 28.9885 2.73785 28.9885C3.67161 28.9885 4.42857 28.2316 4.42857 27.2978Z" fill="#E2DEDB"/>
<path d="M53.5253 27.2921C53.5253 26.3583 52.7683 25.6013 51.8345 25.6013C50.9008 25.6013 50.1438 26.3583 50.1438 27.2921C50.1438 28.2258 50.9008 28.9828 51.8345 28.9828C52.7683 28.9828 53.5253 28.2258 53.5253 27.2921Z" fill="#E2DEDB"/>
<path d="M11.6206 44.6544C11.6206 43.7206 10.8636 42.9636 9.92986 42.9636C8.9961 42.9636 8.23914 43.7206 8.23914 44.6544C8.23914 45.5881 8.9961 46.3451 9.92986 46.3451C10.8636 46.3451 11.6206 45.5881 11.6206 44.6544Z" fill="#E2DEDB"/>
<path d="M46.3332 9.93574C46.3332 9.00198 45.5763 8.24501 44.6425 8.24501C43.7087 8.24501 42.9518 9.00198 42.9518 9.93574C42.9518 10.8695 43.7087 11.6265 44.6425 11.6265C45.5763 11.6265 46.3332 10.8695 46.3332 9.93574Z" fill="#E2DEDB"/>
<path d="M28.9798 51.8433C28.9798 50.9096 28.2229 50.1526 27.2891 50.1526C26.3554 50.1526 25.5984 50.9096 25.5984 51.8433C25.5984 52.7771 26.3554 53.5341 27.2891 53.5341C28.2229 53.5341 28.9798 52.7771 28.9798 51.8433Z" fill="#E2DEDB"/>
<path d="M28.9742 2.74653C28.9742 1.81277 28.2173 1.05581 27.2835 1.05581C26.3497 1.05581 25.5928 1.81277 25.5928 2.74653C25.5928 3.68029 26.3497 4.43726 27.2835 4.43726C28.2173 4.43726 28.9742 3.68029 28.9742 2.74653Z" fill="#E2DEDB"/>
<path d="M46.3362 44.6514C46.3362 43.7177 45.5792 42.9607 44.6454 42.9607C43.7117 42.9607 42.9547 43.7177 42.9547 44.6514C42.9547 45.5852 43.7117 46.3422 44.6454 46.3422C45.5792 46.3422 46.3362 45.5852 46.3362 44.6514Z" fill="#E2DEDB"/>
<path d="M11.6177 9.93855C11.6177 9.00479 10.8607 8.24782 9.92693 8.24782C8.99317 8.24782 8.23621 9.00479 8.23621 9.93855C8.23621 10.8723 8.99317 11.6293 9.92693 11.6293C10.8607 11.6293 11.6177 10.8723 11.6177 9.93855Z" fill="#E2DEDB"/>
</svg>
