<svg width="25" height="25" viewBox="0 0 25 25" fill="none" xmlns="http://www.w3.org/2000/svg">
<path d="M1.26031e-05 7.93816C6.6421 6.71783 11.3506 12.5231 11.3506 12.5231L11.3431 12.5406C11.3431 12.5406 3.86082 13.355 0.037802 7.8485" fill="#E9796F"/>
<path d="M1.24053e-05 17.6913C6.6421 18.9179 11.3506 13.1063 11.3506 13.1063L11.3431 13.0888C11.3431 13.0888 3.86082 12.2744 0.0378017 17.7809" fill="#E9796F"/>
<path d="M24.0402 17.6941C17.3969 18.9182 12.6896 13.109 12.6896 13.109L12.6972 13.0915C12.6972 13.0915 20.1794 12.2771 24.0024 17.7837" fill="#E9796F"/>
<path d="M24.0402 7.93684C17.3969 6.7152 12.6896 12.522 12.6896 12.522L12.6972 12.5382C12.6972 12.5382 20.1794 13.3539 24.0024 7.84593" fill="#E9796F"/>
<path d="M7.00864 0.964865C12.5787 4.74428 11.7599 12.1412 11.7599 12.1412L11.7423 12.1487C11.7423 12.1487 5.86491 7.49384 7.09933 0.927506" fill="#E9796F"/>
<path d="M17.0303 24.6675C11.4603 20.8881 12.2841 13.4911 12.2841 13.4911L12.3017 13.4837C12.3017 13.4837 18.1753 18.1385 16.9397 24.7048" fill="#E9796F"/>
<path d="M16.9534 0.933663C18.1891 7.49998 12.3155 12.1536 12.3155 12.1536L12.2979 12.1473C12.2979 12.1473 11.4741 4.75042 17.0441 0.971022" fill="#E9796F"/>
<path d="M7.08683 24.6982C5.85114 18.1319 11.7248 13.4784 11.7248 13.4784L11.7424 13.4846C11.7424 13.4846 12.5662 20.8815 6.99614 24.6609" fill="#E9796F"/>
</svg>
