<svg width="70" height="70" viewBox="0 0 70 70" fill="none" xmlns="http://www.w3.org/2000/svg">
<path d="M69.0144 20.3589C49.9463 16.8151 36.4291 33.6737 36.4291 33.6737L36.4508 33.7243C36.4508 33.7243 57.9308 36.0893 68.9059 20.0986" fill="#B86496"/>
<path d="M69.0144 48.6807C49.9463 52.2426 36.4291 35.3659 36.4291 35.3659L36.4508 35.3153C36.4508 35.3153 57.9308 32.9503 68.9059 48.941" fill="#B86496"/>
<path d="M-2.15097e-08 48.688C19.0717 52.2427 32.5853 35.3732 32.5853 35.3732L32.5636 35.3226C32.5636 35.3226 11.0835 32.9576 0.108485 48.9483" fill="#B86496"/>
<path d="M-5.89466e-07 20.3553C19.0717 16.8078 32.5853 33.67 32.5853 33.67L32.5636 33.717C32.5636 33.717 11.0835 36.0856 0.108484 20.0913" fill="#B86496"/>
<path d="M48.8942 0.108417C32.9035 11.0835 35.254 32.5635 35.254 32.5635L35.3046 32.5852C35.3046 32.5852 52.1777 19.068 48.6338 -6.92547e-05" fill="#B86496"/>
<path d="M20.1239 68.9385C36.1146 57.9634 33.7497 36.4834 33.7497 36.4834L33.699 36.4617C33.699 36.4617 16.8369 49.979 20.3843 69.047" fill="#B86496"/>
<path d="M20.3445 0.0181961C16.7971 19.0862 33.6592 32.5999 33.6592 32.5999L33.7099 32.5818C33.7099 32.5818 36.0748 11.1017 20.0842 0.126682" fill="#B86496"/>
<path d="M48.6699 69.0289C52.2173 49.9609 35.3551 36.4473 35.3551 36.4473L35.3045 36.4654C35.3045 36.4654 32.9395 57.9454 48.9302 68.9204" fill="#B86496"/>
</svg>
