<svg width="17" height="16" viewBox="0 0 17 16" fill="none" xmlns="http://www.w3.org/2000/svg">
<path d="M1.53958e-05 4.67771C4.43178 3.86347 7.57343 7.73691 7.57343 7.73691L7.56838 7.74854C7.56838 7.74854 2.57603 8.29192 0.0252296 4.61788" fill="#F4C5BB"/>
<path d="M1.52638e-05 11.1851C4.43178 12.0035 7.57343 8.12589 7.57343 8.12589L7.56838 8.11426C7.56838 8.11426 2.57603 7.57087 0.0252295 11.245" fill="#F4C5BB"/>
<path d="M16.0402 11.187C11.6076 12.0037 8.46682 8.1277 8.46682 8.1277L8.47186 8.11606C8.47186 8.11606 13.4642 7.57267 16.0149 11.2468" fill="#F4C5BB"/>
<path d="M16.0402 4.67682C11.6076 3.86172 8.46682 7.73617 8.46682 7.73617L8.47186 7.74697C8.47186 7.74697 13.4642 8.29121 16.0149 4.61617" fill="#F4C5BB"/>
<path d="M4.67633 0.0249556C8.39279 2.54667 7.8465 7.48208 7.8465 7.48208L7.83473 7.48706C7.83473 7.48706 3.9132 4.38124 4.73684 2.94283e-05" fill="#F4C5BB"/>
<path d="M11.363 15.8398C7.64656 13.3181 8.19622 8.3827 8.19622 8.3827L8.20798 8.37772C8.20798 8.37772 12.127 11.4835 11.3025 15.8647" fill="#F4C5BB"/>
<path d="M11.3117 0.00405311C12.1362 4.38526 8.2172 7.49023 8.2172 7.49023L8.20543 7.48608C8.20543 7.48608 7.65578 2.55068 11.3723 0.0289798" fill="#F4C5BB"/>
<path d="M4.72851 15.8604C3.90402 11.4792 7.82306 8.37419 7.82306 8.37419L7.83482 8.37835C7.83482 8.37835 8.38448 13.3137 4.668 15.8354" fill="#F4C5BB"/>
</svg>
