<svg width="46" height="47" viewBox="0 0 46 47" fill="none" xmlns="http://www.w3.org/2000/svg">
<path d="M45.9975 13.5756C33.2865 11.2117 24.2788 22.4477 24.2788 22.4477L24.2933 22.4816C24.2933 22.4816 38.6102 24.0583 45.9248 13.4012" fill="#96B2CD"/>
<path d="M45.9975 32.4678C33.2865 34.8318 24.2788 23.5934 24.2788 23.5934L24.2933 23.5595C24.2933 23.5595 38.6102 21.9827 45.9248 32.6398" fill="#96B2CD"/>
<path d="M-1.42026e-08 32.4678C12.7183 34.8245 21.7162 23.5885 21.7162 23.5885L21.7017 23.5546C21.7017 23.5546 7.38972 21.9778 0.07024 32.6349" fill="#96B2CD"/>
<path d="M-3.9299e-07 13.5757C12.7086 11.2117 21.7162 22.4501 21.7162 22.4501L21.7017 22.484C21.7017 22.484 7.38972 24.0608 0.0702396 13.4037" fill="#96B2CD"/>
<path d="M32.5791 0.0847851C21.922 7.39942 23.4963 21.7162 23.4963 21.7162L23.5302 21.7162C23.5302 21.7162 34.7686 12.7086 32.4047 1.10511e-05" fill="#96B2CD"/>
<path d="M13.411 45.9587C24.068 38.6441 22.4913 24.3272 22.4913 24.3272L22.4574 24.3272C22.4574 24.3272 11.2214 33.3228 13.5853 46.0314" fill="#96B2CD"/>
<path d="M13.5587 0.0121155C11.1947 12.7231 22.4331 21.7308 22.4331 21.7308L22.4646 21.7162C22.4646 21.7162 24.0414 7.40184 13.3843 0.0847778" fill="#96B2CD"/>
<path d="M32.4388 46.0314C34.8027 33.3204 23.5644 24.3127 23.5644 24.3127L23.5305 24.3272C23.5305 24.3272 21.9537 38.6417 32.6108 45.9587" fill="#96B2CD"/>
</svg>
