<svg width="35" height="34" viewBox="0 0 35 34" fill="none" xmlns="http://www.w3.org/2000/svg">
<path d="M2.3179e-05 10.0253C9.40504 8.29736 16.0722 16.5175 16.0722 16.5175L16.0615 16.5422C16.0615 16.5422 5.46681 17.6954 0.0535319 9.89837" fill="#F6D2C8"/>
<path d="M2.28988e-05 23.8354C9.40504 25.5722 16.0722 17.3431 16.0722 17.3431L16.0615 17.3184C16.0615 17.3184 5.46681 16.1653 0.0535317 23.9624" fill="#F6D2C8"/>
<path d="M34.0402 23.8392C24.6334 25.5725 17.9681 17.3468 17.9681 17.3468L17.9788 17.3221C17.9788 17.3221 28.5734 16.1689 33.9867 23.9661" fill="#F6D2C8"/>
<path d="M34.0402 10.0234C24.6334 8.29358 17.9681 16.5159 17.9681 16.5159L17.9788 16.5388C17.9788 16.5388 28.5734 17.6938 33.9867 9.89466" fill="#F6D2C8"/>
<path d="M9.92402 0.151334C17.811 5.50287 16.6517 15.9767 16.6517 15.9767L16.6267 15.9873C16.6267 15.9873 8.30453 9.39618 10.0524 0.0984351" fill="#F6D2C8"/>
<path d="M24.1144 33.7135C16.2274 28.3619 17.3939 17.8881 17.3939 17.8881L17.4188 17.8775C17.4188 17.8775 25.7357 24.4686 23.986 33.7664" fill="#F6D2C8"/>
<path d="M24.0056 0.107075C25.7553 9.4048 17.4384 15.9941 17.4384 15.9941L17.4134 15.9853C17.4134 15.9853 16.2469 5.5115 24.134 0.159974" fill="#F6D2C8"/>
<path d="M10.0347 33.7571C8.28502 24.4594 16.6019 17.8701 16.6019 17.8701L16.6269 17.8789C16.6269 17.8789 17.7934 28.3527 9.90631 33.7042" fill="#F6D2C8"/>
</svg>
