<svg width="10" height="10" viewBox="0 0 10 10" fill="none" xmlns="http://www.w3.org/2000/svg">
<path d="M8.66816e-06 2.91158C2.75183 2.40599 4.70258 4.81113 4.70258 4.81113L4.69944 4.81836C4.69944 4.81836 1.59954 5.15576 0.0156647 2.87443" fill="#F6D2CA"/>
<path d="M8.58618e-06 6.95226C2.75183 7.46043 4.70258 5.05268 4.70258 5.05268L4.69944 5.04546C4.69944 5.04546 1.59954 4.70805 0.0156646 6.9894" fill="#F6D2CA"/>
<path d="M9.95984 6.95323C7.20752 7.46038 5.25731 5.05363 5.25731 5.05363L5.26044 5.0464C5.26044 5.0464 8.36032 4.70899 9.94418 6.99038" fill="#F6D2CA"/>
<path d="M9.95984 2.91096C7.20752 2.40484 5.25731 4.81061 5.25731 4.81061L5.26044 4.81732C5.26044 4.81732 8.36032 5.15525 9.94418 2.8733" fill="#F6D2CA"/>
<path d="M2.90368 0.0225519C5.21135 1.58836 4.87214 4.65291 4.87214 4.65291L4.86483 4.65601C4.86483 4.65601 2.42983 2.72751 2.94126 0.00707427" fill="#F6D2CA"/>
<path d="M7.05567 9.84243C4.74799 8.27662 5.08929 5.21208 5.08929 5.21208L5.0966 5.20898C5.0966 5.20898 7.53005 7.13748 7.0181 9.85791" fill="#F6D2CA"/>
<path d="M7.02383 0.00955486C7.53578 2.72998 5.10233 4.65796 5.10233 4.65796L5.09503 4.65538C5.09503 4.65538 4.75373 1.59084 7.06141 0.0250325" fill="#F6D2CA"/>
<path d="M2.9361 9.85522C2.42415 7.13481 4.8576 5.20683 4.8576 5.20683L4.86491 5.20941C4.86491 5.20941 5.2062 8.27395 2.89852 9.83975" fill="#F6D2CA"/>
</svg>
