<svg width="17" height="17" viewBox="0 0 17 17" fill="none" xmlns="http://www.w3.org/2000/svg">
<g clip-path="url(#clip0)">
<path d="M17 10.9038V17.1888H13.3563V11.3248C13.3563 9.85165 12.8293 8.84632 11.5105 8.84632C10.5037 8.84632 9.90451 9.52384 9.64092 10.1792C9.5448 10.4135 9.52006 10.7396 9.52006 11.0676V17.1888H5.87518C5.87518 17.1888 5.92427 7.25701 5.87518 6.228H9.5197V7.78165C9.51231 7.79327 9.50271 7.8058 9.49575 7.81707H9.5197V7.78165C10.0039 7.03587 10.8687 5.9705 12.8042 5.9705C15.2023 5.97046 17 7.53708 17 10.9038ZM2.06249 0.944336C0.81558 0.944336 0 1.76221 0 2.83774C0 3.88983 0.791985 4.73253 2.01411 4.73253H2.03846C3.30951 4.73253 4.1 3.88999 4.1 2.83774C4.07604 1.76221 3.30951 0.944336 2.06249 0.944336ZM0.216474 17.1888H3.85997V6.228H0.216474V17.1888Z" fill="black" fill-opacity="0.8"/>
</g>
<defs>
<clipPath id="clip0">
<rect width="17" height="17" fill="white"/>
</clipPath>
</defs>
</svg>
