<svg width="662" height="465" viewBox="0 0 662 465" fill="none" xmlns="http://www.w3.org/2000/svg">
<rect x="151.5" y="147.5" width="78" height="51" stroke="black"/>
<path d="M191.236 186.202C187.246 172.069 177.322 164.32 172.859 162.212C162.136 155.504 157.949 167.382 163.15 176.84C170.653 190.485 196.224 203.869 191.236 186.202Z" fill="white" stroke="black"/>
<rect x="1" y="33" width="660" height="431" stroke="black" stroke-width="2"/>
<circle cx="97.2352" cy="90.4323" r="32.769" fill="white" stroke="black" stroke-width="2"/>
<circle cx="97.2352" cy="90.4323" r="30.8589" fill="white" stroke="black" stroke-width="0.25"/>
<path d="M100.383 104.817C96.373 105.835 89.3741 110.125 91.824 119.656C95.8337 118.637 102.833 114.348 100.383 104.817Z" fill="white"/>
<path d="M100.577 104.769C96.5785 105.703 89.2403 110.025 91.8733 119.844M91.6301 119.703C95.6283 118.77 102.966 114.448 100.333 104.629" stroke="black"/>
<path d="M109.785 88.5311C105.833 89.45 98.9784 93.4897 101.569 102.777C105.521 101.858 112.376 97.8188 109.785 88.5311Z" fill="white"/>
<path d="M109.976 88.4886C106.034 89.3249 98.8443 93.3899 101.621 102.96M101.378 102.82C105.32 101.984 112.51 97.9185 109.733 88.3482" stroke="black"/>
<path d="M123.051 96.1902C119.099 97.1091 112.244 101.149 114.835 110.436C118.787 109.517 125.641 105.478 123.051 96.1902Z" fill="white"/>
<path d="M123.242 96.1477C119.3 96.9839 112.11 101.049 114.887 110.619M114.643 110.479C118.586 109.643 125.775 105.578 122.999 96.0072" stroke="black"/>
<path d="M119.53 71.6524C115.52 72.6713 108.521 76.9609 110.971 86.492C114.981 85.4731 121.98 81.1835 119.53 71.6524Z" fill="white"/>
<path d="M119.724 71.6051C115.726 72.5386 108.388 76.8604 111.021 86.6797M110.777 86.5393C114.776 85.6058 122.114 81.2839 119.481 71.4646" stroke="black"/>
<path d="M91.9409 99.9428C87.9312 100.962 80.9322 105.251 83.3822 114.782C87.3919 113.763 94.3909 109.474 91.9409 99.9428Z" fill="white"/>
<path d="M92.1348 99.8955C88.1367 100.829 80.7985 105.151 83.4315 114.97M83.1883 114.83C87.1865 113.896 94.5246 109.574 91.8916 99.755" stroke="black"/>
<path d="M101.343 83.6574C97.3913 84.5762 90.5366 88.6159 93.1272 97.9035C97.0792 96.9847 103.934 92.945 101.343 83.6574Z" fill="white"/>
<path d="M101.534 83.6148C97.5924 84.4511 90.4025 88.5162 93.1792 98.0865M92.936 97.9461C96.878 97.1098 104.068 93.0447 101.291 83.4744" stroke="black"/>
<path d="M111.088 66.7786C107.079 67.7975 100.08 72.0871 102.53 81.6182C106.539 80.5993 113.538 76.3097 111.088 66.7786Z" fill="white"/>
<path d="M111.282 66.7313C107.284 67.6648 99.9459 71.9866 102.579 81.8059M102.336 81.6655C106.334 80.732 113.672 76.4102 111.039 66.5909" stroke="black"/>
<path d="M83.4991 95.0689C79.4894 96.0878 72.4904 100.377 74.9404 109.908C78.9501 108.89 85.9491 104.6 83.4991 95.0689Z" fill="white"/>
<path d="M83.693 95.0216C79.6949 95.9551 72.3567 100.277 74.9897 110.096M74.7465 109.956C78.7447 109.022 86.0828 104.7 83.4498 94.8811" stroke="black"/>
<path d="M92.9015 78.7835C88.9495 79.7023 82.0949 83.742 84.6854 93.0296C88.6374 92.1108 95.492 88.0711 92.9015 78.7835Z" fill="white"/>
<path d="M93.0927 78.7409C89.1506 79.5772 81.9607 83.6423 84.7375 93.2126M84.4942 93.0721C88.4363 92.2359 95.6262 88.1708 92.8494 78.6005" stroke="black"/>
<path d="M79.6358 71.1245C75.6838 72.0434 68.8291 76.0831 71.4197 85.3707C75.3717 84.4518 82.2263 80.4121 79.6358 71.1245Z" fill="white"/>
<path d="M79.827 71.082C75.8849 71.9182 68.695 75.9833 71.4717 85.5536M71.2285 85.4132C75.1705 84.577 82.3604 80.5119 79.5837 70.9416" stroke="black"/>
<path d="M102.646 61.9047C98.6368 62.9236 91.6378 67.2132 94.0878 76.7443C98.0975 75.7254 105.096 71.4358 102.646 61.9047Z" fill="white"/>
<path d="M102.84 61.8574C98.8422 62.7909 91.5041 67.1127 94.1371 76.932M93.8938 76.7916C97.892 75.8581 105.23 71.5363 102.597 61.717" stroke="black"/>
<path d="M121.64 83.3159C117.688 84.2348 110.833 88.2745 113.424 97.5621C117.376 96.6432 124.23 92.6035 121.64 83.3159Z" fill="white"/>
<path d="M121.831 83.2734C117.889 84.1096 110.699 88.1747 113.476 97.7451M113.233 97.6046C117.175 96.7684 124.365 92.7033 121.588 83.133" stroke="black"/>
<path d="M112.238 99.6013C108.228 100.62 101.229 104.91 103.679 114.441C107.689 113.422 114.687 109.132 112.238 99.6013Z" fill="white"/>
<path d="M112.431 99.554C108.433 100.488 101.095 104.809 103.728 114.629M103.485 114.488C107.483 113.555 114.821 109.233 112.188 99.4136" stroke="black"/>
<path d="M91.4907 65.9093C87.5387 66.8282 80.684 70.8679 83.2746 80.1555C87.2266 79.2366 94.0812 75.1969 91.4907 65.9093Z" fill="white"/>
<path d="M91.6818 65.8668C87.7398 66.703 80.5499 70.7681 83.3266 80.3384M83.0834 80.198C87.0254 79.3618 94.2153 75.2967 91.4386 65.7264" stroke="black"/>
<path d="M82.0883 82.1947C78.0786 83.2136 71.0796 87.5032 73.5296 97.0343C77.5393 96.0154 84.5382 91.7258 82.0883 82.1947Z" fill="white"/>
<path d="M82.2822 82.1474C78.284 83.0809 70.9459 87.4028 73.5789 97.2221M73.3356 97.0816C77.3338 96.1481 84.672 91.8263 82.039 82.007" stroke="black"/>
<path d="M92.9235 118.44C92.7619 115.935 93.9631 109.956 100.06 106.079" stroke="black" stroke-width="0.25"/>
<path d="M93.7539 96.8103C93.5923 94.3051 94.7935 88.3255 100.891 84.4491" stroke="black" stroke-width="0.25"/>
<path d="M102.497 101.858C102.336 99.3531 103.537 93.3735 109.634 89.4971" stroke="black" stroke-width="0.25"/>
<path d="M103.153 80.5298C102.992 78.0246 104.193 72.045 110.29 68.1686" stroke="black" stroke-width="0.25"/>
<path d="M111.897 85.5778C111.735 83.0725 112.936 77.093 119.034 73.2166" stroke="black" stroke-width="0.25"/>
<path d="M115.763 109.517C115.601 107.012 116.802 101.032 122.9 97.156" stroke="black" stroke-width="0.25"/>
<path d="M104.604 113.526C104.443 111.021 105.644 105.042 111.741 101.165" stroke="black" stroke-width="0.25"/>
<path d="M114.352 96.6428C114.19 94.1376 115.392 88.158 121.489 84.2816" stroke="black" stroke-width="0.25"/>
<path d="M85.3121 91.9364C85.1505 89.4312 86.3517 83.4516 92.4488 79.5752" stroke="black" stroke-width="0.25"/>
<path d="M94.7117 75.6558C94.5501 73.1505 95.7513 67.171 101.848 63.2946" stroke="black" stroke-width="0.25"/>
<path d="M83.9012 79.0621C83.7397 76.5569 84.9408 70.5774 91.038 66.7009" stroke="black" stroke-width="0.25"/>
<path d="M72.0464 84.2776C71.8848 81.7724 73.086 75.7928 79.1831 71.9164" stroke="black" stroke-width="0.25"/>
<path d="M74.1535 95.9457C73.9919 93.4405 75.1931 87.4609 81.2902 83.5845" stroke="black" stroke-width="0.25"/>
<path d="M75.5643 108.82C75.4028 106.315 76.6039 100.335 82.7011 96.4587" stroke="black" stroke-width="0.25"/>
<path d="M84.0061 113.694C83.8446 111.189 85.0457 105.209 91.1429 101.333" stroke="black" stroke-width="0.25"/>
<circle cx="190.535" cy="90.4323" r="32.769" fill="white" stroke="black" stroke-width="2"/>
<circle cx="190.535" cy="90.4323" r="30.8589" fill="white" stroke="black" stroke-width="0.25"/>
<circle cx="283.835" cy="90.4323" r="24.1651" fill="white" stroke="black" stroke-width="2"/>
<path d="M303.875 90.5C303.875 101.756 294.974 110.875 284 110.875C273.026 110.875 264.125 101.756 264.125 90.5C264.125 79.2443 273.026 70.125 284 70.125C294.974 70.125 303.875 79.2443 303.875 90.5Z" fill="white" stroke="black" stroke-width="0.25"/>
<circle cx="377.135" cy="90.4323" r="32.769" fill="white" stroke="black" stroke-width="2"/>
<circle cx="377.135" cy="90.4323" r="30.8589" fill="white" stroke="black" stroke-width="0.25"/>
<circle cx="470.435" cy="90.4323" r="32.769" fill="white" stroke="black" stroke-width="2"/>
<circle cx="470.435" cy="90.4323" r="30.8589" fill="white" stroke="black" stroke-width="0.25"/>
<circle cx="470.435" cy="171.769" r="32.769" fill="white" stroke="black" stroke-width="2"/>
<circle cx="470.435" cy="171.769" r="30.8589" fill="white" stroke="black" stroke-width="0.25"/>
<circle cx="563.769" cy="171.769" r="32.769" fill="white" stroke="black" stroke-width="2"/>
<circle cx="563.769" cy="171.769" r="30.8589" fill="white" stroke="black" stroke-width="0.25"/>
<circle cx="563.734" cy="90.4323" r="32.769" fill="white" stroke="black" stroke-width="2"/>
<circle cx="563.734" cy="90.4323" r="30.8589" fill="white" stroke="black" stroke-width="0.25"/>
<circle cx="97.4079" cy="172.155" r="32.8044" fill="white" stroke="black" stroke-width="2"/>
<circle cx="97.4079" cy="172.155" r="30.7198" fill="white" stroke="black" stroke-width="0.25"/>
<circle cx="97.4079" cy="332.804" r="32.8044" fill="white" stroke="black" stroke-width="2"/>
<circle cx="97.4079" cy="332.804" r="30.7198" fill="white" stroke="black" stroke-width="0.25"/>
<circle cx="97.4079" cy="417.804" r="32.8044" fill="white" stroke="black" stroke-width="2"/>
<circle cx="97.4079" cy="417.804" r="30.7198" fill="white" stroke="black" stroke-width="0.25"/>
<circle cx="564.804" cy="417.804" r="32.8044" fill="white" stroke="black" stroke-width="2"/>
<circle cx="564.804" cy="417.804" r="30.7198" fill="white" stroke="black" stroke-width="0.25"/>
<circle cx="174.804" cy="417.804" r="32.8044" fill="white" stroke="black" stroke-width="2"/>
<circle cx="174.804" cy="417.804" r="30.7198" fill="white" stroke="black" stroke-width="0.25"/>
<circle cx="252.804" cy="417.804" r="32.8044" fill="white" stroke="black" stroke-width="2"/>
<circle cx="252.804" cy="417.804" r="30.7198" fill="white" stroke="black" stroke-width="0.25"/>
<circle cx="330.804" cy="417.804" r="32.8044" fill="white" stroke="black" stroke-width="2"/>
<circle cx="330.804" cy="417.804" r="30.7198" fill="white" stroke="black" stroke-width="0.25"/>
<circle cx="408.804" cy="417.804" r="32.8044" fill="white" stroke="black" stroke-width="2"/>
<circle cx="408.804" cy="417.804" r="30.7198" fill="white" stroke="black" stroke-width="0.25"/>
<circle cx="486.804" cy="417.804" r="32.8044" fill="white" stroke="black" stroke-width="2"/>
<circle cx="486.804" cy="417.804" r="30.7198" fill="white" stroke="black" stroke-width="0.25"/>
<circle cx="260.804" cy="332.804" r="32.8044" fill="white" stroke="black" stroke-width="2"/>
<circle cx="260.804" cy="332.804" r="30.7198" fill="white" stroke="black" stroke-width="0.25"/>
<circle cx="330.804" cy="332.804" r="17.1956" fill="white" stroke="black" stroke-width="2"/>
<circle cx="330.804" cy="332.804" r="10.0706" fill="white" stroke="black" stroke-width="0.25"/>
<circle cx="400.804" cy="332.804" r="32.8044" fill="white" stroke="black" stroke-width="2"/>
<circle cx="400.804" cy="332.804" r="30.7198" fill="white" stroke="black" stroke-width="0.25"/>
<path d="M396.5 319L394.5 309L383 310.5V321L396.5 319Z" fill="white" stroke="black" stroke-width="0.5"/>
<path d="M379 351L378 341.5L392 340L393 348.5L379 351Z" fill="white" stroke="black" stroke-width="0.5"/>
<circle cx="563.804" cy="332.804" r="32.8044" fill="white" stroke="black" stroke-width="2"/>
<circle cx="563.804" cy="332.804" r="30.7198" fill="white" stroke="black" stroke-width="0.25"/>
<circle cx="190.804" cy="258.804" r="32.8044" fill="white" stroke="black" stroke-width="2"/>
<circle cx="190.804" cy="258.804" r="30.7198" fill="white" stroke="black" stroke-width="0.25"/>
<circle cx="330.804" cy="258.804" r="32.8044" fill="white" stroke="black" stroke-width="2"/>
<circle cx="330.804" cy="258.804" r="30.7198" fill="white" stroke="black" stroke-width="0.25"/>
<circle cx="470.804" cy="258.804" r="32.8044" fill="white" stroke="black" stroke-width="2"/>
<circle cx="470.804" cy="258.804" r="30.7198" fill="white" stroke="black" stroke-width="0.25"/>
<circle cx="283.804" cy="171.804" r="32.8044" fill="white" stroke="black" stroke-width="2"/>
<circle cx="283.804" cy="171.804" r="30.7198" fill="white" stroke="black" stroke-width="0.25"/>
<circle cx="376.804" cy="171.804" r="32.8044" fill="white" stroke="black" stroke-width="2"/>
<circle cx="376.804" cy="171.804" r="30.7198" fill="white" stroke="black" stroke-width="0.25"/>
<path d="M567.097 104.603C563.087 105.622 556.088 109.912 558.538 119.443C562.548 118.424 569.547 114.134 567.097 104.603Z" fill="white"/>
<path d="M567.291 104.556C563.292 105.489 555.954 109.811 558.587 119.63M558.344 119.49C562.342 118.556 569.68 114.235 567.047 104.415" stroke="black"/>
<path d="M576.499 88.3176C572.547 89.2365 565.692 93.2762 568.283 102.564C572.235 101.645 579.09 97.6053 576.499 88.3176Z" fill="white"/>
<path d="M576.69 88.2751C572.748 89.1114 565.558 93.1764 568.335 102.747M568.092 102.606C572.034 101.77 579.224 97.705 576.447 88.1347" stroke="black"/>
<path d="M589.765 95.9767C585.813 96.8956 578.958 100.935 581.549 110.223C585.501 109.304 592.355 105.264 589.765 95.9767Z" fill="white"/>
<path d="M589.956 95.9342C586.014 96.7704 578.824 100.835 581.601 110.406M581.358 110.265C585.3 109.429 592.489 105.364 589.713 95.7937" stroke="black"/>
<path d="M586.244 71.4389C582.234 72.4578 575.235 76.7474 577.685 86.2785C581.695 85.2596 588.694 80.97 586.244 71.4389Z" fill="white"/>
<path d="M586.438 71.3916C582.44 72.3251 575.102 76.6469 577.735 86.4662M577.491 86.3258C581.49 85.3923 588.828 81.0704 586.195 71.2511" stroke="black"/>
<path d="M558.655 99.7293C554.645 100.748 547.646 105.038 550.096 114.569C554.106 113.55 561.105 109.26 558.655 99.7293Z" fill="white"/>
<path d="M558.849 99.682C554.851 100.615 547.513 104.937 550.146 114.757M549.902 114.616C553.9 113.683 561.239 109.361 558.606 99.5415" stroke="black"/>
<path d="M568.057 83.4439C564.105 84.3627 557.251 88.4024 559.841 97.69C563.793 96.7712 570.648 92.7315 568.057 83.4439Z" fill="white"/>
<path d="M568.249 83.4013C564.306 84.2376 557.117 88.3027 559.893 97.873M559.65 97.7325C563.592 96.8963 570.782 92.8312 568.005 83.2609" stroke="black"/>
<path d="M577.802 66.5651C573.793 67.584 566.794 71.8736 569.244 81.4047C573.253 80.3858 580.252 76.0962 577.802 66.5651Z" fill="white"/>
<path d="M577.996 66.5178C573.998 67.4513 566.66 71.7731 569.293 81.5924M569.05 81.452C573.048 80.5185 580.386 76.1967 577.753 66.3774" stroke="black"/>
<path d="M550.213 94.8554C546.203 95.8743 539.204 100.164 541.654 109.695C545.664 108.676 552.663 104.386 550.213 94.8554Z" fill="white"/>
<path d="M550.407 94.8081C546.409 95.7416 539.071 100.063 541.704 109.883M541.46 109.742C545.459 108.809 552.797 104.487 550.164 94.6676" stroke="black"/>
<path d="M559.616 78.5699C555.664 79.4888 548.809 83.5285 551.399 92.8161C555.351 91.8973 562.206 87.8576 559.616 78.5699Z" fill="white"/>
<path d="M559.807 78.5274C555.865 79.3637 548.675 83.4288 551.451 92.9991M551.208 92.8586C555.15 92.0224 562.34 87.9573 559.563 78.387" stroke="black"/>
<path d="M546.35 70.911C542.398 71.8299 535.543 75.8696 538.134 85.1572C542.086 84.2383 548.94 80.1986 546.35 70.911Z" fill="white"/>
<path d="M546.541 70.8685C542.599 71.7047 535.409 75.7698 538.186 85.3401M537.943 85.1997C541.885 84.3635 549.074 80.2984 546.298 70.7281" stroke="black"/>
<path d="M569.36 61.6912C565.351 62.7101 558.352 66.9997 560.802 76.5308C564.812 75.5119 571.81 71.2223 569.36 61.6912Z" fill="white"/>
<path d="M569.554 61.6439C565.556 62.5774 558.218 66.8992 560.851 76.7185M560.608 76.5781C564.606 75.6446 571.944 71.3228 569.311 61.5035" stroke="black"/>
<path d="M588.354 83.1024C584.402 84.0213 577.547 88.061 580.138 97.3486C584.09 96.4297 590.944 92.39 588.354 83.1024Z" fill="white"/>
<path d="M588.545 83.0599C584.603 83.8961 577.413 87.9612 580.19 97.5315M579.947 97.3911C583.889 96.5549 591.079 92.4898 588.302 82.9195" stroke="black"/>
<path d="M578.952 99.3878C574.942 100.407 567.943 104.696 570.393 114.227C574.403 113.209 581.402 108.919 578.952 99.3878Z" fill="white"/>
<path d="M579.145 99.3405C575.147 100.274 567.809 104.596 570.442 114.415M570.199 114.275C574.197 113.341 581.535 109.019 578.902 99.2001" stroke="black"/>
<path d="M558.205 65.6958C554.253 66.6147 547.398 70.6544 549.989 79.942C553.941 79.0231 560.795 74.9834 558.205 65.6958Z" fill="white"/>
<path d="M558.396 65.6533C554.454 66.4895 547.264 70.5546 550.041 80.1249M549.797 79.9845C553.739 79.1483 560.929 75.0832 558.153 65.5129" stroke="black"/>
<path d="M548.802 81.9812C544.793 83.0001 537.794 87.2897 540.244 96.8208C544.253 95.8019 551.252 91.5123 548.802 81.9812Z" fill="white"/>
<path d="M548.996 81.9339C544.998 82.8674 537.66 87.1893 540.293 97.0086M540.05 96.8681C544.048 95.9346 551.386 91.6128 548.753 81.7935" stroke="black"/>
<path d="M559.638 118.227C559.476 115.722 560.677 109.742 566.774 105.866" stroke="black" stroke-width="0.25"/>
<path d="M560.468 96.5968C560.306 94.0916 561.507 88.112 567.605 84.2356" stroke="black" stroke-width="0.25"/>
<path d="M569.211 101.645C569.05 99.1396 570.251 93.16 576.348 89.2836" stroke="black" stroke-width="0.25"/>
<path d="M569.868 80.3163C569.706 77.8111 570.907 71.8315 577.004 67.9551" stroke="black" stroke-width="0.25"/>
<path d="M578.611 85.3643C578.449 82.859 579.65 76.8795 585.748 73.0031" stroke="black" stroke-width="0.25"/>
<path d="M582.477 109.304C582.315 106.798 583.516 100.819 589.614 96.9425" stroke="black" stroke-width="0.25"/>
<path d="M571.318 113.313C571.157 110.808 572.358 104.828 578.455 100.952" stroke="black" stroke-width="0.25"/>
<path d="M581.066 96.4293C580.904 93.9241 582.106 87.9445 588.203 84.0681" stroke="black" stroke-width="0.25"/>
<path d="M552.026 91.7229C551.865 89.2177 553.066 83.2381 559.163 79.3617" stroke="black" stroke-width="0.25"/>
<path d="M561.426 75.4423C561.264 72.937 562.465 66.9575 568.562 63.0811" stroke="black" stroke-width="0.25"/>
<path d="M550.615 78.8486C550.454 76.3434 551.655 70.3639 557.752 66.4874" stroke="black" stroke-width="0.25"/>
<path d="M538.76 84.0641C538.599 81.5589 539.8 75.5793 545.897 71.7029" stroke="black" stroke-width="0.25"/>
<path d="M540.867 95.7322C540.706 93.227 541.907 87.2474 548.004 83.371" stroke="black" stroke-width="0.25"/>
<path d="M542.278 108.606C542.117 106.101 543.318 100.122 549.415 96.2452" stroke="black" stroke-width="0.25"/>
<path d="M550.72 113.48C550.559 110.975 551.76 104.996 557.857 101.119" stroke="black" stroke-width="0.25"/>
<path d="M163 79.5C162.833 77.8333 163.1 74.2 165.5 73C167.9 71.8 169.5 68.8333 170 67.5C170.833 66.1666 173.2 63.7 176 64.5C178.8 65.3 180.833 62.8333 181.5 61.5" stroke="black"/>
<path d="M160.5 90.5C160 88 159.5 82.7 161.5 81.5" stroke="black"/>
<path d="M198 120C196.667 121 193.4 122.7 191 121.5C188.6 120.3 184 119.667 182 119.5C179.5 119.167 174.2 117.9 173 115.5C171.8 113.1 169.833 110.833 169 110L164.5 107C163.167 105.833 160.9 102.7 162.5 99.5C164.1 96.3 162.167 95.1667 161 95" stroke="black"/>
<path d="M212 111C211.833 112.167 210.6 114.8 207 116C203.4 117.2 202.5 118.167 202.5 118.5" stroke="black"/>
<path d="M194 74C194.778 73.2454 196.867 72.1889 199 74" stroke="black"/>
<path d="M187 66C187.933 65.2454 190.44 64.1889 193 66" stroke="black"/>
<path d="M183 79C183.622 78.2454 185.293 77.1889 187 79" stroke="black"/>
<path d="M197.267 104.884C197 105.995 196.045 107.655 194.364 105.402" stroke="black"/>
<path d="M193.903 114C193.635 115.111 192.68 116.771 191 114.518" stroke="black"/>
<path d="M171.388 94.9581C170.491 94.5329 169.203 93.329 171.22 91.9157" stroke="black"/>
<path d="M206.576 69.513C207.248 69.4537 208.68 69.7617 209.038 71.4683" stroke="black"/>
<path d="M199.238 62.8066C200.164 62.6693 202.432 62.8567 204.103 64.7043" stroke="black"/>
<path d="M197.164 91.5497C197.333 92.1338 197.288 93.3548 195.757 93.5655" stroke="black"/>
<path d="M192.039 90.519C191.816 91.0847 191.035 92.0245 189.694 91.258" stroke="black"/>
<path d="M183.92 112.365C183.401 112.747 182.145 113.163 181.274 111.766" stroke="black"/>
<path d="M183.684 101.123C182.816 101.836 180.951 102.576 180.439 99.8319" stroke="black"/>
<path d="M209.497 93.8876C210.072 94.9443 210.498 96.9162 207.594 96.3506" stroke="black"/>
<path d="M207.57 105.309C207.651 106.51 207.215 108.479 204.812 106.753" stroke="black"/>
<path d="M202.865 118.631C202.212 119.302 200.295 120.529 197.846 120.074" stroke="black"/>
<path d="M207.771 80.6633C208.919 81.0462 210.907 82.4917 209.682 85.2102" stroke="black"/>
<path d="M216.394 106.267C216.307 107.821 215.26 110.912 211.771 110.841" stroke="black"/>
<path d="M182.206 94.3525C181.436 93.6309 180.283 91.7414 181.838 89.957" stroke="black"/>
<path d="M174.551 110.036C173.496 109.998 171.385 109.331 171.385 106.964" stroke="black"/>
<path d="M161.17 81.7367C161.662 80.8025 163.179 79.1909 165.311 80.2185" stroke="black"/>
<path d="M161.109 95.1083C160.264 94.4763 158.909 92.726 160.257 90.7805" stroke="black"/>
<path d="M198 86C198.029 84.7025 197.439 82.3986 194.852 83.5634" stroke="black"/>
<path d="M181 62C181.53 61.176 183.673 59.638 188 60.0774" stroke="black"/>
<path d="M173 75C173.513 73.7641 175.231 71.457 178 72.1161" stroke="black"/>
<path d="M172.512 84.2613C173.088 83.503 174.639 82.2295 176.238 83.2018" stroke="black"/>
<path d="M188 60.5C189.667 59.8334 193.4 58.9 195 60.5C196.6 62.1 199.333 61.1667 200.5 60.5C202.167 61.1667 205.7 62.9 206.5 64.5C207.5 66.5 210 67.5 211 68C212 68.5 216.5 71 216.5 75C216.5 79 218 81.5 219 81.5C220 81.5 223 88 221 90.5C219.4 92.5 219.667 96.6667 220 98.5C219.5 101 218 106.1 216 106.5" stroke="black"/>
<circle cx="284" cy="90" r="12.75" stroke="black" stroke-width="0.5"/>
<circle cx="284" cy="90" r="6.875" stroke="black" stroke-width="0.25"/>
<circle cx="284" cy="90" r="10.875" fill="white" fill-opacity="0.7" stroke="black" stroke-width="0.25"/>
<path d="M359.012 79.1358C355.13 81.8335 350.015 88.3053 358.988 93.8642C362.87 91.1665 367.985 84.6947 359.012 79.1358Z" fill="white"/>
<path d="M359.211 79C355.279 81.6316 349.774 88.3158 359.211 94M358.789 94C362.721 91.3684 368.226 84.6842 358.789 79" stroke="black"/>
<path d="M365.012 74.1358C361.13 76.8335 356.015 83.3053 364.988 88.8642C368.87 86.1665 373.985 79.6947 365.012 74.1358Z" fill="white"/>
<path d="M365.211 74C361.279 76.6316 355.774 83.3158 365.211 89M364.789 89C368.721 86.3684 374.226 79.6842 364.789 74" stroke="black"/>
<path d="M385.012 64.1358C381.13 66.8335 376.015 73.3053 384.988 78.8642C388.87 76.1665 393.985 69.6947 385.012 64.1358Z" fill="white"/>
<path d="M385.211 64C381.279 66.6316 375.774 73.3158 385.211 79M384.789 79C388.721 76.3684 394.226 69.6842 384.789 64" stroke="black"/>
<path d="M377.012 63.1358C373.13 65.8335 368.015 72.3053 376.988 77.8642C380.87 75.1665 385.985 68.6947 377.012 63.1358Z" fill="white"/>
<path d="M377.211 63C373.279 65.6316 367.774 72.3158 377.211 78M376.789 78C380.721 75.3684 386.226 68.6842 376.789 63" stroke="black"/>
<path d="M383.086 85.4966C379.43 82.5009 371.806 79.3519 368.913 89.5033C372.57 92.4991 380.194 95.6481 383.086 85.4966Z" fill="white"/>
<path d="M383.272 85.6509C379.665 82.5887 371.73 79.1223 368.844 89.7543M368.728 89.349C372.335 92.4112 380.27 95.8777 383.156 85.2457" stroke="black"/>
<path d="M394.379 90.9568C389.693 91.5799 382.185 94.9953 387.621 104.043C392.307 103.42 399.815 100.005 394.379 90.9568Z" fill="white"/>
<path d="M394.618 90.9271C389.918 91.4684 381.965 94.894 387.756 104.266M387.382 104.073C392.082 103.532 400.035 100.106 394.244 90.7343" stroke="black"/>
<path d="M362.54 98.9992C360.387 103.208 358.926 111.326 369.46 112.001C371.613 107.792 373.074 99.674 362.54 98.9992Z" fill="white"/>
<path d="M362.652 98.7856C360.424 102.96 358.718 111.449 369.72 112.016M369.348 112.214C371.576 108.04 373.282 99.5509 362.28 98.9842" stroke="black"/>
<path d="M405.75 90.5C405.75 106.098 392.882 118.75 377 118.75C361.118 118.75 348.25 106.098 348.25 90.5C348.25 74.902 361.118 62.25 377 62.25C392.882 62.25 405.75 74.902 405.75 90.5Z" fill="white" fill-opacity="0.7" stroke="black" stroke-width="0.5"/>
<path d="M371.973 89.9103C367.385 91.05 360.303 95.2782 366.71 103.666C371.298 102.527 378.381 98.2984 371.973 89.9103Z" fill="white"/>
<path d="M372.207 89.8542C367.596 90.9143 360.073 95.202 366.87 103.872M366.476 103.722C371.087 102.662 378.61 98.3747 371.814 89.7043" stroke="black"/>
<path d="M380.484 103.47C378.332 107.679 376.87 115.797 387.404 116.472C389.557 112.263 391.018 104.145 380.484 103.47Z" fill="white"/>
<path d="M380.596 103.257C378.368 107.431 376.662 115.92 387.664 116.487M387.293 116.686C389.521 112.512 391.226 104.022 380.224 103.455" stroke="black"/>
<path d="M392.588 88.9267C389.13 85.7042 381.722 82.076 378.189 92.0227C381.647 95.2452 389.055 98.8733 392.588 88.9267Z" fill="white"/>
<path d="M392.763 89.0925C389.359 85.8068 381.66 81.842 378.103 92.2686M378.014 91.8569C381.419 95.1426 389.117 99.1074 392.674 88.6807" stroke="black"/>
<path d="M398.727 73.481C394.041 72.8538 385.9 74.1811 388.774 84.3378C393.459 84.965 401.601 83.6377 398.727 73.481Z" fill="white"/>
<path d="M398.965 73.5151C394.287 72.8051 385.715 74.0258 388.846 84.588M388.535 84.3037C393.213 85.0137 401.786 83.793 398.654 73.2308" stroke="black"/>
<rect x="374.597" y="72.2437" width="1.5" height="32.5" transform="rotate(4.7449 374.597 72.2437)" fill="white" stroke="black" stroke-width="0.5"/>
<rect x="375.25" y="73.25" width="1.5" height="32.5" fill="white" stroke="black" stroke-width="0.5"/>
<rect x="374.766" y="70.5574" width="1.5" height="32.5" transform="rotate(-8.82506 374.766 70.5574)" fill="white" stroke="black" stroke-width="0.5"/>
<rect x="379.25" y="75.25" width="1.5" height="32.5" fill="white" stroke="black" stroke-width="0.5"/>
<rect x="382.639" y="78.2453" width="1.5" height="32.5" transform="rotate(4.89531 382.639 78.2453)" fill="white" stroke="black" stroke-width="0.5"/>
<circle cx="98" cy="196" r="6.5" fill="white" stroke="black"/>
<circle cx="89" cy="192" r="6.5" fill="white" stroke="black"/>
<circle cx="80" cy="187" r="6.5" fill="white" stroke="black"/>
<circle cx="77" cy="178" r="6.5" fill="white" stroke="black"/>
<circle cx="75" cy="170" r="6.5" fill="white" stroke="black"/>
<circle cx="80" cy="161" r="6.5" fill="white" stroke="black"/>
<circle cx="85" cy="154" r="6.5" fill="white" stroke="black"/>
<circle cx="95" cy="150" r="6.5" fill="white" stroke="black"/>
<circle cx="106" cy="152" r="6.5" fill="white" stroke="black"/>
<circle cx="115" cy="157" r="6.5" fill="white" stroke="black"/>
<circle cx="118" cy="165" r="6.5" fill="white" stroke="black"/>
<circle cx="121" cy="172" r="6.5" fill="white" stroke="black"/>
<circle cx="118" cy="182" r="6.5" fill="white" stroke="black"/>
<circle cx="112" cy="189" r="6.5" fill="white" stroke="black"/>
<circle cx="105" cy="192" r="6.5" fill="white" stroke="black"/>
<circle cx="109" cy="179" r="6.5" fill="white" stroke="black"/>
<circle cx="111" cy="168" r="6.5" fill="white" stroke="black"/>
<circle cx="102" cy="159" r="6.5" fill="white" stroke="black"/>
<circle cx="88" cy="161" r="6.5" fill="white" stroke="black"/>
<circle cx="83" cy="172" r="6.5" fill="white" stroke="black"/>
<circle cx="90" cy="182" r="6.5" fill="white" stroke="black"/>
<circle cx="103" cy="182" r="6.5" fill="white" stroke="black"/>
<circle cx="102" cy="170" r="6.5" fill="white" stroke="black"/>
<circle cx="92" cy="172" r="6.5" fill="white" stroke="black"/>
<path d="M174.5 425C174.5 428.558 171.399 431.5 167.5 431.5C163.601 431.5 160.5 428.558 160.5 425C160.5 421.442 163.601 418.5 167.5 418.5C171.399 418.5 174.5 421.442 174.5 425Z" fill="white" stroke="black"/>
<circle cx="153" cy="425" r="6.5" fill="white" stroke="black"/>
<circle cx="196" cy="425" r="6.5" fill="white" stroke="black"/>
<path d="M174.5 411C174.5 414.558 171.399 417.5 167.5 417.5C163.601 417.5 160.5 414.558 160.5 411C160.5 407.442 163.601 404.5 167.5 404.5C171.399 404.5 174.5 407.442 174.5 411Z" fill="white" stroke="black"/>
<circle cx="182" cy="411" r="6.5" fill="white" stroke="black"/>
<circle cx="182" cy="425" r="6.5" fill="white" stroke="black"/>
<path d="M188.5 396.5C188.5 400.399 185.558 403.5 182 403.5C178.442 403.5 175.5 400.399 175.5 396.5C175.5 392.601 178.442 389.5 182 389.5C185.558 389.5 188.5 392.601 188.5 396.5Z" fill="white" stroke="black"/>
<circle cx="167.5" cy="396.5" r="7" fill="white" stroke="black"/>
<path d="M188.5 439.5C188.5 443.399 185.558 446.5 182 446.5C178.442 446.5 175.5 443.399 175.5 439.5C175.5 435.601 178.442 432.5 182 432.5C185.558 432.5 188.5 435.601 188.5 439.5Z" fill="white" stroke="black"/>
<circle cx="167.5" cy="439.5" r="7" fill="white" stroke="black"/>
<circle cx="153" cy="411" r="6.5" fill="white" stroke="black"/>
<circle cx="196" cy="411" r="6.5" fill="white" stroke="black"/>
<path d="M200.236 185.202C196.246 171.069 186.322 163.32 181.859 161.212C171.136 154.504 166.949 166.382 172.15 175.84C179.653 189.485 205.224 202.869 200.236 185.202Z" fill="white" stroke="black"/>
<path d="M209.236 184.202C205.246 170.069 195.322 162.32 190.859 160.212C180.136 153.504 175.949 165.382 181.15 174.84C188.653 188.485 214.224 201.869 209.236 184.202Z" fill="white" stroke="black"/>
<path d="M219.391 178.464C213.849 162.459 201.903 154.204 196.624 152.076C183.827 145.073 179.804 159.029 186.427 169.569C195.981 184.776 226.319 198.469 219.391 178.464Z" fill="white" stroke="black"/>
<rect x="262.5" y="161.5" width="13" height="21" rx="1.5" fill="white" stroke="black"/>
<rect x="277.5" y="161.5" width="13" height="21" rx="1.5" fill="white" stroke="black"/>
<rect x="273.5" y="159.5" width="14" height="21" rx="1.5" transform="rotate(-90 273.5 159.5)" fill="white" stroke="black"/>
<rect x="273.5" y="198.5" width="14" height="21" rx="1.5" transform="rotate(-90 273.5 198.5)" fill="white" stroke="black"/>
<rect x="292.5" y="161.5" width="13" height="21" rx="1.5" fill="white" stroke="black"/>
<rect x="270.5" y="159.5" width="13" height="21" rx="1.5" fill="white" stroke="black"/>
<rect x="285.5" y="155.5" width="13" height="21" rx="1.5" fill="white" stroke="black"/>
<rect x="286.125" y="156.125" width="11.75" height="19.75" rx="1.875" fill="white" stroke="black" stroke-width="0.25"/>
<rect x="271.125" y="160.125" width="11.75" height="19.75" rx="1.875" fill="white" stroke="black" stroke-width="0.25"/>
<rect x="274.125" y="197.875" width="12.75" height="19.75" rx="1.875" transform="rotate(-90 274.125 197.875)" fill="white" stroke="black" stroke-width="0.25"/>
<path d="M377 150.5H373.5C374.333 154.667 375.7 163.9 374.5 167.5C373.3 171.1 374 190.333 374.5 199.5L377 198.5C376.5 193.167 375.8 181 377 175C378.2 169 377.5 156.167 377 150.5Z" fill="white" stroke="black"/>
<path d="M366.866 150.971L363.367 151.062C364.308 155.206 365.913 164.401 364.806 168.03C363.7 171.66 364.897 190.869 365.634 200.02L368.107 198.955C367.47 193.637 366.455 181.492 367.5 175.463C368.544 169.434 367.512 156.623 366.866 150.971Z" fill="white" stroke="black"/>
<path d="M370.99 199.868L374.436 199.253C372.883 195.298 369.915 186.448 370.464 182.693C371.012 178.938 366.943 160.127 364.84 151.191L362.555 152.615C363.984 157.778 366.812 169.632 366.685 175.749C366.558 181.867 369.502 194.377 370.99 199.868Z" fill="white" stroke="black"/>
<path d="M366.974 146.393L363.496 146C363.857 150.234 364.179 159.562 362.583 163.005C360.987 166.448 359.525 185.638 358.994 194.803L361.59 194.09C361.691 188.734 362.36 176.566 364.226 170.738C366.091 164.91 366.835 152.08 366.974 146.393Z" fill="white" stroke="black"/>
<path d="M385.5 145H382C382.833 149.167 384.2 158.4 383 162C381.8 165.6 382.5 184.833 383 194L385.5 193C385 187.667 384.3 175.5 385.5 169.5C386.7 163.5 386 150.667 385.5 145Z" fill="white" stroke="black"/>
<path d="M383 147.5L379.5 148.5V156L380.5 180L379.5 199C381 198.833 383.8 198.4 383 198C382.2 197.6 382.667 193.5 383 191.5C383.667 187.167 384.6 177 383 171C381.4 165 382.333 152.833 383 147.5Z" fill="white" stroke="black"/>
<path d="M399.397 152.835L394.958 152.808L393.776 158.865L391.217 178.487L387 193.593C388.861 193.817 392.355 194.135 391.439 193.621C390.524 193.107 391.741 189.907 392.463 188.371C393.962 185.031 396.706 177.043 395.694 171.815C394.682 166.587 397.741 156.984 399.397 152.835Z" fill="white" stroke="black"/>
<path d="M387.672 199.618L391.089 198.363L390.537 190.883L387.773 167.022L387.372 148C385.888 148.277 383.127 148.915 383.955 149.255C384.782 149.595 384.618 153.718 384.433 155.737C384.087 160.108 383.905 170.316 385.942 176.182C387.979 182.048 387.944 194.25 387.672 199.618Z" fill="white" stroke="black"/>
<path d="M373.5 148L370 149V156.5L371 180.5L370 199.5C371.5 199.333 374.3 198.9 373.5 198.5C372.7 198.1 373.167 194 373.5 192C374.167 187.667 375.1 177.5 373.5 171.5C371.9 165.5 372.833 153.333 373.5 148Z" fill="white" stroke="black"/>
<path d="M462.902 174.8C455.059 178.271 447.699 176.246 445 174.8V185.211C446.705 183.765 450.967 181.307 454.377 183.042C458.639 185.211 459.066 186.079 474.41 186.946C486.685 187.64 494.585 181.452 497 178.271C484.213 167.86 472.705 170.463 462.902 174.8Z" fill="white"/>
<path d="M482.082 174.8C481.087 176.825 480.207 181.481 484.639 183.91M484.639 176.102C484.408 177.837 484.682 181.481 487.623 182.175M489.328 176.102C489.47 176.788 490.266 178.009 492.311 177.403M445 174.8C447.699 176.246 455.059 178.271 462.902 174.8C472.705 170.463 484.213 167.86 497 178.271C494.585 181.452 486.685 187.64 474.41 186.946C459.066 186.079 458.639 185.211 454.377 183.042C450.967 181.307 446.705 183.765 445 185.211V174.8Z" stroke="black"/>
<path d="M449.5 177.5C452.333 178 459.2 178.4 464 176C470 173 479.5 170.5 489 174.5" stroke="black" stroke-width="0.5"/>
<path d="M460.902 166.8C453.059 170.271 445.699 168.246 443 166.8V177.211C444.705 175.765 448.967 173.307 452.377 175.042C456.639 177.211 457.066 178.079 472.41 178.946C484.685 179.64 492.585 173.452 495 170.271C482.213 159.86 470.705 162.463 460.902 166.8Z" fill="white"/>
<path d="M480.082 166.8C479.087 168.825 478.207 173.481 482.639 175.91M482.639 168.102C482.408 169.837 482.682 173.481 485.623 174.175M487.328 168.102C487.47 168.788 488.266 170.009 490.311 169.403M443 166.8C445.699 168.246 453.059 170.271 460.902 166.8C470.705 162.463 482.213 159.86 495 170.271C492.585 173.452 484.685 179.64 472.41 178.946C457.066 178.079 456.639 177.211 452.377 175.042C448.967 173.307 444.705 175.765 443 177.211V166.8Z" stroke="black"/>
<path d="M447.5 169.5C450.333 170 457.2 170.4 462 168C468 165 477.5 162.5 487 166.5" stroke="black" stroke-width="0.5"/>
<path d="M463.902 159.8C456.059 163.271 448.699 161.246 446 159.8V170.211C447.705 168.765 451.967 166.307 455.377 168.042C459.639 170.211 460.066 171.079 475.41 171.946C487.685 172.64 495.585 166.452 498 163.271C485.213 152.86 473.705 155.463 463.902 159.8Z" fill="white"/>
<path d="M483.082 159.8C482.087 161.825 481.207 166.481 485.639 168.91M485.639 161.102C485.408 162.837 485.682 166.481 488.623 167.175M490.328 161.102C490.47 161.788 491.266 163.009 493.311 162.403M446 159.8C448.699 161.246 456.059 163.271 463.902 159.8C473.705 155.463 485.213 152.86 498 163.271C495.585 166.452 487.685 172.64 475.41 171.946C460.066 171.079 459.639 170.211 455.377 168.042C451.967 166.307 447.705 168.765 446 170.211V159.8Z" stroke="black"/>
<path d="M450.5 162.5C453.333 163 460.2 163.4 465 161C471 158 480.5 155.5 490 159.5" stroke="black" stroke-width="0.5"/>
<circle cx="549.5" cy="166.5" r="8" fill="white" stroke="black"/>
<path d="M545 162.5C543.667 165.333 543 171.3 551 172.5" stroke="black" stroke-width="0.5"/>
<circle cx="557.5" cy="157.5" r="8" transform="rotate(70.0375 557.5 157.5)" fill="white" stroke="black"/>
<path d="M559.723 151.905C556.605 151.619 550.769 153.029 552.373 160.958" stroke="black" stroke-width="0.5"/>
<circle cx="573.579" cy="156.147" r="10.0977" transform="rotate(82.7691 573.579 156.147)" fill="white" stroke="black"/>
<path d="M577.82 149.953C574.107 148.748 566.622 148.86 566.393 158.944" stroke="black" stroke-width="0.5"/>
<circle cx="576.527" cy="169.05" r="8.02246" transform="rotate(-92.0692 576.527 169.05)" fill="white" stroke="black"/>
<path d="M572.682 173.704C575.57 174.937 581.572 175.389 582.485 167.33" stroke="black" stroke-width="0.5"/>
<circle cx="568.825" cy="183.825" r="8.02246" transform="rotate(-92.0692 568.825 183.825)" fill="white" stroke="black"/>
<path d="M564.98 188.478C567.867 189.712 573.869 190.164 574.782 182.104" stroke="black" stroke-width="0.5"/>
<circle cx="581.825" cy="180.825" r="8.02246" transform="rotate(-21.5179 581.825 180.825)" fill="white" stroke="black"/>
<path d="M576.156 178.749C575.954 181.882 577.527 187.692 585.43 185.87" stroke="black" stroke-width="0.5"/>
<circle cx="548.825" cy="178.825" r="8.02246" transform="rotate(-92.0692 548.825 178.825)" fill="white" stroke="black"/>
<path d="M544.98 183.478C547.867 184.712 553.869 185.164 554.782 177.104" stroke="black" stroke-width="0.5"/>
<circle cx="556.825" cy="190.825" r="8.02246" transform="rotate(141.554 556.825 190.825)" fill="white" stroke="black"/>
<path d="M562.852 191.16C562.133 188.104 558.936 183.003 551.906 187.048" stroke="black" stroke-width="0.5"/>
<rect x="185.513" y="244.55" width="6.5" height="6.5" transform="rotate(130.223 185.513 244.55)" fill="white" stroke="black" stroke-width="0.5"/>
<rect x="196.513" y="279.55" width="6.5" height="6.5" transform="rotate(130.223 196.513 279.55)" fill="white" stroke="black" stroke-width="0.5"/>
<circle cx="562.227" cy="172.227" r="8.91436" transform="rotate(141.554 562.227 172.227)" fill="white" stroke="black"/>
<path d="M568.885 172.598C568.09 169.222 564.56 163.587 556.794 168.055" stroke="black" stroke-width="0.5"/>
<circle cx="190.845" cy="258.845" r="27.0302" fill="white" fill-opacity="0.7" stroke="black" stroke-width="0.25"/>
<rect x="328.25" y="262.25" width="9.5" height="9.5" fill="white" stroke="black" stroke-width="0.5"/>
<rect x="335.332" y="275.974" width="5.91294" height="5.91294" transform="rotate(13.2807 335.332 275.974)" fill="white" stroke="black" stroke-width="0.5"/>
<rect x="315.487" y="258.574" width="5.91294" height="5.91294" transform="rotate(90 315.487 258.574)" fill="white" stroke="black" stroke-width="0.5"/>
<rect x="325.513" y="241.55" width="6.5" height="6.5" transform="rotate(130.223 325.513 241.55)" fill="white" stroke="black" stroke-width="0.5"/>
<circle cx="331.155" cy="258.845" r="27.0302" fill="white" fill-opacity="0.7" stroke="black" stroke-width="0.25"/>
<rect x="351.75" y="265.25" width="8.5" height="8.5" transform="rotate(90 351.75 265.25)" fill="white" stroke="black" stroke-width="0.5"/>
<rect x="346.08" y="259.117" width="6.5" height="6.5" transform="rotate(130.223 346.08 259.117)" fill="white" stroke="black" stroke-width="0.5"/>
<rect x="201.879" y="249.55" width="9.59808" height="9.59808" transform="rotate(130.223 201.879 249.55)" fill="white" stroke="black" stroke-width="0.5"/>
<rect x="318.513" y="269.55" width="6.5" height="6.5" transform="rotate(130.223 318.513 269.55)" fill="white" stroke="black" stroke-width="0.5"/>
<rect x="348.513" y="241.55" width="6.5" height="6.5" transform="rotate(130.223 348.513 241.55)" fill="white" stroke="black" stroke-width="0.5"/>
<rect x="324.712" y="272.353" width="5.91294" height="5.91294" transform="rotate(47.4896 324.712 272.353)" fill="white" stroke="black" stroke-width="0.5"/>
<rect x="343.353" y="253.791" width="9.5" height="9.5" transform="rotate(-42.6627 343.353 253.791)" fill="white" stroke="black" stroke-width="0.5"/>
<circle cx="471.155" cy="259.155" r="27.0302" fill="white" stroke="black" stroke-width="0.25"/>
<rect x="170.686" y="257.889" width="15.2493" height="24.3247" transform="rotate(-31.1225 170.686 257.889)" fill="white" stroke="black"/>
<rect x="333.97" y="236.693" width="15.2493" height="24.3247" transform="rotate(56.4694 333.97 236.693)" fill="white" stroke="black"/>
<path d="M202.376 239.329C198.776 234.129 191.542 236.162 188.376 237.829C184.376 240.629 190.042 241.329 193.376 241.329L202.376 242.329C203.876 243.496 205.976 244.529 202.376 239.329Z" stroke="black"/>
<path d="M210.876 248.829C209.276 248.829 205.209 251.496 203.376 252.829C192.576 259.229 194.209 261.162 196.376 261.329C198.709 262.162 204.676 263.229 209.876 260.829C215.076 258.429 214.709 253.496 213.876 251.329C213.542 250.496 212.476 248.829 210.876 248.829Z" stroke="black"/>
<path d="M208.376 267.329L198.876 275.829C194.376 278.329 203.376 285.829 208.376 274.329C212.376 265.129 210.042 265.829 208.376 267.329Z" stroke="black"/>
<path d="M487.623 242.148C487.774 242.945 487.223 243.877 486.026 244.74C484.846 245.589 483.113 246.312 481.106 246.693C479.099 247.074 477.222 247.036 475.813 246.678C474.382 246.314 473.529 245.649 473.377 244.852C473.226 244.055 473.777 243.123 474.974 242.26C476.154 241.411 477.887 240.688 479.894 240.307C481.901 239.926 483.778 239.964 485.187 240.322C486.618 240.686 487.471 241.351 487.623 242.148Z" fill="white" stroke="black" stroke-width="0.5"/>
<path d="M480.264 240.165C480.227 240.975 479.476 241.755 478.112 242.318C476.768 242.873 474.915 243.176 472.874 243.084C470.833 242.992 469.015 242.522 467.727 241.848C466.419 241.164 465.742 240.321 465.778 239.51C465.815 238.699 466.566 237.919 467.93 237.356C469.274 236.802 471.127 236.498 473.168 236.59C475.209 236.683 477.027 237.152 478.315 237.826C479.623 238.51 480.3 239.354 480.264 240.165Z" fill="white" stroke="black" stroke-width="0.5"/>
<path d="M471.952 241.858C471.897 243.07 471.079 244.167 469.729 244.949C468.381 245.729 466.532 246.174 464.504 246.082C462.475 245.99 460.674 245.38 459.402 244.482C458.128 243.581 457.412 242.415 457.467 241.203C457.522 239.992 458.34 238.895 459.69 238.113C461.038 237.333 462.887 236.888 464.915 236.979C466.944 237.071 468.745 237.681 470.017 238.58C471.291 239.48 472.007 240.647 471.952 241.858Z" fill="white" stroke="black" stroke-width="0.5"/>
<path d="M487.508 247.612C487.914 248.755 487.57 250.079 486.614 251.313C485.66 252.544 484.116 253.653 482.203 254.333C480.29 255.013 478.392 255.128 476.875 254.776C475.355 254.422 474.252 253.612 473.846 252.469C473.439 251.327 473.783 250.002 474.739 248.769C475.693 247.538 477.237 246.428 479.15 245.748C481.064 245.068 482.962 244.953 484.478 245.306C485.999 245.659 487.101 246.469 487.508 247.612Z" fill="white" stroke="black" stroke-width="0.5"/>
<path d="M489.531 248.083C490.65 247.615 491.991 247.887 493.275 248.775C494.555 249.661 495.746 251.143 496.529 253.017C497.311 254.891 497.528 256.78 497.258 258.314C496.988 259.851 496.238 260.995 495.119 261.463C494 261.93 492.659 261.659 491.375 260.77C490.095 259.884 488.903 258.402 488.121 256.528C487.338 254.655 487.122 252.766 487.392 251.232C487.662 249.695 488.412 248.55 489.531 248.083Z" fill="white" stroke="black" stroke-width="0.5"/>
<path d="M485.531 256.083C486.65 255.615 487.991 255.887 489.275 256.775C490.555 257.661 491.746 259.143 492.529 261.017C493.311 262.891 493.528 264.78 493.258 266.314C492.988 267.851 492.238 268.995 491.119 269.463C490 269.93 488.659 269.659 487.375 268.77C486.095 267.884 484.903 266.402 484.121 264.528C483.338 262.655 483.122 260.766 483.392 259.232C483.662 257.695 484.412 256.55 485.531 256.083Z" fill="white" stroke="black" stroke-width="0.5"/>
<path d="M472.508 247.612C472.914 248.755 472.57 250.079 471.614 251.313C470.66 252.544 469.116 253.653 467.203 254.333C465.29 255.013 463.392 255.128 461.875 254.776C460.355 254.422 459.252 253.612 458.846 252.469C458.439 251.327 458.783 250.002 459.739 248.769C460.693 247.538 462.237 246.428 464.15 245.748C466.064 245.068 467.962 244.953 469.478 245.306C470.999 245.659 472.101 246.469 472.508 247.612Z" fill="white" stroke="black" stroke-width="0.5"/>
<path d="M450.257 253.225C451.063 252.318 452.389 251.981 453.931 252.225C455.469 252.468 457.185 253.286 458.703 254.635C460.221 255.984 461.235 257.592 461.657 259.091C462.08 260.593 461.901 261.95 461.096 262.857C460.29 263.763 458.964 264.1 457.422 263.857C455.884 263.614 454.168 262.795 452.65 261.446C451.132 260.097 450.118 258.489 449.696 256.99C449.273 255.488 449.452 254.131 450.257 253.225Z" fill="white" stroke="black" stroke-width="0.5"/>
<path d="M450.379 244.758C451.185 243.852 452.511 243.515 454.053 243.758C455.591 244.001 457.307 244.82 458.825 246.169C460.343 247.518 461.357 249.126 461.779 250.625C462.202 252.127 462.023 253.484 461.218 254.39C460.412 255.297 459.086 255.634 457.544 255.39C456.006 255.147 454.29 254.329 452.772 252.98C451.254 251.631 450.24 250.023 449.818 248.524C449.395 247.022 449.574 245.665 450.379 244.758Z" fill="white" stroke="black" stroke-width="0.5"/>
<path d="M452.637 267.703C452.448 266.505 453.03 265.266 454.197 264.23C455.361 263.196 457.084 262.39 459.089 262.074C461.095 261.758 462.982 261.995 464.408 262.621C465.837 263.248 466.771 264.248 466.96 265.446C467.149 266.644 466.567 267.882 465.4 268.919C464.236 269.953 462.514 270.759 460.508 271.075C458.502 271.391 456.616 271.154 455.189 270.528C453.76 269.901 452.826 268.901 452.637 267.703Z" fill="white" stroke="black" stroke-width="0.5"/>
<path d="M445.995 264.044C445.806 262.846 446.388 261.607 447.555 260.571C448.72 259.536 450.442 258.731 452.448 258.415C454.453 258.098 456.34 258.336 457.766 258.961C459.195 259.589 460.13 260.588 460.318 261.786C460.507 262.984 459.925 264.223 458.758 265.259C457.594 266.293 455.872 267.099 453.866 267.415C451.86 267.731 449.974 267.494 448.548 266.868C447.119 266.241 446.184 265.242 445.995 264.044Z" fill="white" stroke="black" stroke-width="0.5"/>
<path d="M454.511 267.348C455.416 266.594 456.922 266.624 458.71 267.427C460.481 268.222 462.446 269.746 464.173 271.815C465.901 273.885 467.048 276.091 467.514 277.976C467.984 279.878 467.744 281.366 466.839 282.121C465.935 282.875 464.428 282.845 462.641 282.042C460.87 281.247 458.905 279.724 457.178 277.654C455.45 275.584 454.303 273.378 453.837 271.493C453.367 269.591 453.607 268.103 454.511 267.348Z" fill="white" stroke="black" stroke-width="0.5"/>
<path d="M464.096 262.642C464.813 262.043 465.898 261.958 467.12 262.38C468.337 262.801 469.645 263.715 470.743 265.031C471.842 266.347 472.506 267.797 472.703 269.07C472.9 270.348 472.621 271.4 471.904 271.999C471.187 272.597 470.102 272.683 468.88 272.26C467.663 271.839 466.355 270.926 465.257 269.61C464.158 268.294 463.494 266.843 463.297 265.57C463.1 264.292 463.378 263.24 464.096 262.642Z" fill="white" stroke="black" stroke-width="0.5"/>
<path d="M471.194 271.171C470.911 270.281 471.241 269.244 472.093 268.272C472.942 267.303 474.282 266.436 475.915 265.916C477.548 265.395 479.142 265.327 480.395 265.625C481.653 265.925 482.522 266.58 482.806 267.47C483.09 268.359 482.759 269.396 481.907 270.369C481.058 271.337 479.718 272.204 478.085 272.725C476.452 273.245 474.858 273.313 473.605 273.015C472.347 272.715 471.478 272.061 471.194 271.171Z" fill="white" stroke="black" stroke-width="0.5"/>
<path d="M463.888 274.811C464.045 273.89 464.815 273.121 466.019 272.649C467.218 272.179 468.806 272.024 470.495 272.312C472.185 272.599 473.633 273.271 474.608 274.112C475.588 274.956 476.06 275.936 475.903 276.857C475.746 277.778 474.976 278.547 473.772 279.02C472.574 279.49 470.985 279.644 469.296 279.357C467.606 279.069 466.158 278.397 465.183 277.557C464.203 276.713 463.732 275.732 463.888 274.811Z" fill="white" stroke="black" stroke-width="0.5"/>
<path d="M475.448 279.564C475.029 278.729 475.194 277.654 475.885 276.56C476.574 275.472 477.762 274.407 479.295 273.64C480.827 272.872 482.391 272.557 483.675 272.657C484.965 272.757 485.925 273.269 486.343 274.104C486.762 274.939 486.597 276.015 485.906 277.108C485.218 278.196 484.029 279.261 482.496 280.029C480.964 280.797 479.4 281.112 478.116 281.012C476.827 280.911 475.866 280.399 475.448 279.564Z" fill="white" stroke="black" stroke-width="0.5"/>
<path d="M480.936 272.99C480.518 272.155 480.683 271.08 481.374 269.987C482.062 268.898 483.251 267.834 484.783 267.066C486.316 266.298 487.88 265.983 489.164 266.083C490.453 266.183 491.414 266.695 491.832 267.53C492.251 268.365 492.086 269.441 491.394 270.534C490.706 271.622 489.518 272.687 487.985 273.455C486.453 274.223 484.889 274.538 483.605 274.438C482.315 274.337 481.355 273.825 480.936 272.99Z" fill="white" stroke="black" stroke-width="0.5"/>
<rect x="484.085" y="251.769" width="15.2493" height="24.3247" transform="rotate(97.386 484.085 251.769)" fill="white" stroke="black"/>
<path d="M79.5 348.5L77.5 339.5C103.1 333.5 118.167 326.667 122.5 324L124.5 345C120.833 344.833 111.7 344.6 104.5 345C97.3 345.4 84.8333 347.5 79.5 348.5Z" fill="white" stroke="black"/>
<path d="M79 343C79.5 343.167 81.6 343.4 86 343C91.5 342.5 103 339.5 103 339C103 338.5 116.5 335.5 121.5 338" stroke="black" stroke-width="0.25"/>
<path d="M121 332C118.333 332.333 111.9 333.4 107.5 335C102 337 92 341.5 85.5 342C80.3 342.4 79 342.833 79 343" stroke="black" stroke-width="0.25"/>
<path d="M72 338.5L70 329.5C95.6 323.5 110.667 316.667 115 314L117 335C113.333 334.833 104.2 334.6 97 335C89.8 335.4 77.3333 337.5 72 338.5Z" fill="white" stroke="black"/>
<path d="M72.5 334C73 334.167 75.1 334.4 79.5 334C85 333.5 96.5 330.5 96.5 330C96.5 329.5 110 326.5 115 329" stroke="black" stroke-width="0.25"/>
<path d="M114.5 323C111.833 323.333 105.4 324.4 101 326C95.5 328 85.5 332.5 79 333C73.8 333.4 72.5 333.833 72.5 334" stroke="black" stroke-width="0.25"/>
<path d="M260.5 341.5C259.3 342.7 259 345.333 259 346.5C258.833 346.833 258.6 347.8 259 349C259.5 350.5 260.5 351 261.5 352.5C262.5 354 262 356.5 262 359.5C262 362.5 265 361 266.5 361C268 361 268 357 276.5 355.5C285 354 280.5 354.5 282.5 352C284.5 349.5 284 346.5 281 345C278 343.5 280.5 344 279.5 341C278.5 338 277.5 337.5 273 337.5C268.5 337.5 269 338 266.5 339C264 340 262 340 260.5 341.5Z" stroke="black"/>
<path d="M235.5 329L236.5 332C236.833 332.833 237.5 334.8 237.5 336C237.5 337.5 236.5 339.5 236.5 342C236.5 344.5 237.5 344 239 347C240.5 350 240 348.5 242 349.5C244 350.5 243.5 349.5 248.5 349.5C253.5 349.5 252 350 254 349.5C256 349 253.5 347 254.5 342C255.5 337 255.5 340.5 256 338.5C256.5 336.5 257 335 257.5 334.5C258 334 257 333 256 332C255 331 255 329 254.5 328L254.5 327.999C253.999 326.999 252.5 324 252 322C251.5 320 250.5 321.5 248.5 320C246.5 318.5 246 320 243.5 320C241 320 241 320.5 240 321.5L237.5 324C237 324.5 236.5 325.5 236.5 326C236.5 326.4 235.833 328.167 235.5 329Z" stroke="black"/>
<path d="M257.5 309.5L256 311.5C256 312 255.8 313.1 255 313.5C254 313.5 254.5 314.5 254.5 315C254.5 315.4 255.167 315.5 255.5 315.5L256 316.5C255.833 316.5 255.2 316.4 254 316C252.8 315.6 252.167 315.833 252 316L254.5 320V322C254.5 323 257 324 258 325.5C259 327 258.5 327.5 259 328C259.5 328.5 259 329.5 259.5 331.5C260 333.5 261.5 332 263 332.5C264.2 332.9 263.5 333 263 333C263.333 333.167 264.2 333.5 265 333.5C266 333.5 266.5 334.5 268 334.75C269.5 335 270 335 271 335C272 335 271.5 335 275.5 331.5C279.5 328 276 332 276.5 332C277 332 280 332.5 285 333C290 333.5 287 333 287 332C287 331 286.5 331 285.5 330C284.5 329 284.5 329.5 281.5 328C278.5 326.5 279 326.5 279 326C279 325.5 280 326 283.5 326H284L285 325L283.5 322.5C283 322 282 320.8 282 320C282 319 284.5 316.5 283.5 316C282.5 315.5 282.5 315 282 316C281.5 317 281 316 278 316.5C276.5 316.5 277 316 276 315.5C275.2 315.1 275.333 314.333 275.5 314C276 313.667 277.1 313 277.5 313C278 313 280 312.5 280.5 312.5H282C281.5 312.167 280.1 311.5 278.5 311.5H275.5C274.3 311.5 273 312 272.5 312.25C272 312 271.1 311.4 271.5 311C272 310.5 272 309 272 308.5C272 308.1 272.333 308 272.5 308L272 306.5C271.667 307 270.7 308.1 269.5 308.5C268 309 268.5 309.5 268 309.5C267.6 309.5 266.833 310.167 266.5 310.5H265V309.5V308L266 306L265 306.5L260.5 309.5H257.5Z" stroke="black"/>
<path d="M410.5 310.5H415C417.667 320.5 423.1 340.6 423.5 341C424 341.5 423 349.5 422.5 351C422 352.5 418 353.5 416.5 353.5C415 353.5 412.5 354 412.5 353.5C412.5 353 406.5 329 406.5 328C406.5 327.2 405.5 318.667 405 314.5L406 310.5H410.5Z" fill="white" stroke="black" stroke-width="0.5"/>
<rect x="397.267" y="321.291" width="9.63375" height="8.18607" transform="rotate(63.275 397.267 321.291)" fill="white" stroke="black" stroke-width="0.5"/>
<path d="M410.5 326L388 332.5L384.5 334L411 327.5L410.5 326Z" fill="white" stroke="black" stroke-width="0.5"/>
<path d="M412.648 327.082L391.518 337.182L388.311 339.236L413.387 328.48L412.648 327.082Z" fill="white" stroke="black" stroke-width="0.5"/>
<path d="M388.5 334.014L411.261 328.501L414.823 327.154L388.065 332.494L388.5 334.014Z" fill="white" stroke="black" stroke-width="0.5"/>
<path d="M384.5 337.014L407.261 331.501L410.823 330.154L384.065 335.494L384.5 337.014Z" fill="white" stroke="black" stroke-width="0.5"/>
<path d="M390.5 318.5H378.5L378 319L378.5 331.5L390.5 328V318.5Z" fill="white" stroke="black" stroke-width="0.5"/>
<path d="M387 357.5L384.5 347.5L399.5 341.5L403 353L387 357.5Z" fill="white" stroke="black" stroke-width="0.5"/>
<rect x="374.25" y="328.25" width="7.5" height="12.5" fill="white" stroke="black" stroke-width="0.5"/>
<rect x="396.25" y="354.25" width="9.5" height="8.5" fill="white" stroke="black" stroke-width="0.5"/>
<rect x="403.506" y="348.743" width="6.5" height="5.5" transform="rotate(49.844 403.506 348.743)" fill="white" stroke="black" stroke-width="0.5"/>
<rect x="401.25" y="339.25" width="6.5" height="5.5" fill="white" stroke="black" stroke-width="0.5"/>
<rect x="398.47" y="303.353" width="6.5" height="5.5" transform="rotate(48.4589 398.47 303.353)" fill="white" stroke="black" stroke-width="0.5"/>
<rect x="402.283" y="314" width="9.63375" height="8.18607" transform="rotate(95.1083 402.283 314)" fill="white" stroke="black" stroke-width="0.5"/>
<rect x="423.25" y="324.25" width="4.5" height="7.5" fill="white" stroke="black" stroke-width="0.5"/>
<rect x="418.346" y="319.779" width="6.5" height="5.5" transform="rotate(-56.696 418.346 319.779)" fill="white" stroke="black" stroke-width="0.5"/>
<path d="M415 311L411 307L407 308.5L403 310V314L404.5 320.5L406 326.5" stroke="black" stroke-width="0.25"/>
<path d="M551.774 320.244C552.241 320.744 552.622 321.232 552.859 321.616C552.978 321.808 553.058 321.969 553.096 322.088C553.115 322.148 553.122 322.191 553.121 322.218C553.121 322.225 553.12 322.23 553.12 322.233C553.116 322.233 553.111 322.234 553.104 322.233C553.077 322.232 553.035 322.223 552.977 322.2C552.861 322.154 552.706 322.063 552.522 321.931C552.155 321.669 551.694 321.256 551.226 320.756C550.758 320.256 550.378 319.768 550.141 319.384C550.022 319.192 549.942 319.031 549.904 318.912C549.885 318.852 549.878 318.81 549.879 318.782C549.879 318.775 549.88 318.771 549.88 318.767C549.884 318.767 549.889 318.766 549.896 318.767C549.923 318.768 549.965 318.777 550.023 318.8C550.139 318.847 550.294 318.937 550.478 319.069C550.845 319.331 551.306 319.744 551.774 320.244ZM553.118 322.24C553.118 322.24 553.118 322.24 553.118 322.239L553.118 322.24ZM553.126 322.232C553.127 322.232 553.127 322.232 553.127 322.232L553.126 322.232ZM549.882 318.761C549.882 318.76 549.882 318.76 549.882 318.76C549.882 318.76 549.882 318.76 549.882 318.761ZM549.874 318.768C549.873 318.768 549.873 318.768 549.873 318.768C549.873 318.768 549.873 318.768 549.874 318.768Z" fill="white" stroke="black" stroke-width="0.25"/>
<path d="M564.435 318.264C564.259 318.926 564.046 319.507 563.847 319.912C563.747 320.115 563.653 320.268 563.572 320.363C563.532 320.411 563.499 320.439 563.476 320.453C563.47 320.457 563.465 320.459 563.462 320.46C563.46 320.457 563.457 320.453 563.454 320.447C563.44 320.424 563.426 320.383 563.415 320.321C563.392 320.198 563.387 320.019 563.401 319.793C563.429 319.343 563.534 318.733 563.71 318.071C563.886 317.41 564.098 316.828 564.298 316.424C564.398 316.221 564.492 316.068 564.572 315.973C564.613 315.924 564.646 315.897 564.669 315.883C564.675 315.879 564.679 315.877 564.683 315.876C564.685 315.878 564.688 315.883 564.691 315.888C564.704 315.912 564.719 315.953 564.73 316.015C564.753 316.138 564.758 316.317 564.744 316.543C564.716 316.993 564.611 317.603 564.435 318.264ZM563.455 320.462C563.455 320.462 563.455 320.462 563.456 320.462L563.455 320.462ZM563.467 320.465C563.467 320.465 563.467 320.465 563.467 320.465L563.467 320.465ZM564.689 315.874C564.689 315.874 564.69 315.874 564.69 315.874C564.69 315.874 564.689 315.874 564.689 315.874ZM564.678 315.871C564.678 315.871 564.678 315.87 564.678 315.87C564.678 315.87 564.678 315.87 564.678 315.871Z" fill="white" stroke="black" stroke-width="0.25"/>
<path d="M572.437 326.754C572.055 327.322 571.664 327.802 571.344 328.119C571.183 328.279 571.044 328.392 570.937 328.456C570.883 328.488 570.843 328.504 570.816 328.51C570.809 328.511 570.804 328.511 570.801 328.512C570.8 328.508 570.798 328.504 570.797 328.497C570.792 328.47 570.792 328.427 570.801 328.365C570.82 328.241 570.873 328.07 570.961 327.861C571.134 327.445 571.433 326.903 571.815 326.335C572.198 325.767 572.588 325.287 572.909 324.97C573.07 324.81 573.208 324.697 573.316 324.633C573.37 324.601 573.41 324.585 573.437 324.579C573.443 324.578 573.448 324.577 573.452 324.577C573.453 324.581 573.454 324.585 573.455 324.592C573.46 324.619 573.461 324.662 573.451 324.724C573.432 324.848 573.379 325.019 573.292 325.228C573.118 325.644 572.82 326.186 572.437 326.754ZM570.794 328.511C570.794 328.511 570.794 328.511 570.794 328.512L570.794 328.511ZM570.803 328.518C570.804 328.518 570.804 328.518 570.804 328.518L570.803 328.518ZM573.458 324.577C573.459 324.577 573.459 324.578 573.459 324.578C573.459 324.578 573.459 324.577 573.458 324.577ZM573.449 324.571C573.449 324.571 573.449 324.571 573.449 324.571C573.449 324.571 573.449 324.571 573.449 324.571Z" fill="white" stroke="black" stroke-width="0.25"/>
<path d="M562.77 329.725C562.089 329.649 561.483 329.525 561.053 329.388C560.838 329.319 560.673 329.249 560.566 329.183C560.513 329.15 560.48 329.122 560.463 329.101C560.459 329.096 560.456 329.091 560.454 329.088C560.457 329.086 560.46 329.082 560.466 329.078C560.487 329.061 560.525 329.041 560.585 329.021C560.703 328.98 560.879 328.948 561.105 328.929C561.554 328.89 562.173 328.904 562.853 328.98C563.534 329.056 564.14 329.18 564.57 329.318C564.786 329.386 564.95 329.457 565.057 329.522C565.11 329.556 565.143 329.584 565.16 329.605C565.164 329.61 565.167 329.614 565.169 329.617C565.166 329.62 565.163 329.623 565.157 329.627C565.136 329.644 565.098 329.664 565.039 329.685C564.92 329.725 564.744 329.757 564.518 329.777C564.069 329.815 563.45 329.802 562.77 329.725ZM560.451 329.082C560.451 329.082 560.451 329.082 560.451 329.082L560.451 329.082ZM560.45 329.093C560.45 329.094 560.45 329.094 560.45 329.094L560.45 329.093ZM565.172 329.623C565.172 329.623 565.172 329.624 565.172 329.624C565.172 329.624 565.172 329.623 565.172 329.623ZM565.173 329.612C565.173 329.612 565.173 329.611 565.173 329.611C565.173 329.611 565.173 329.612 565.173 329.612Z" fill="white" stroke="black" stroke-width="0.25"/>
<path d="M575.014 337.291C574.565 337.062 574.181 336.82 573.922 336.615C573.792 336.512 573.699 336.423 573.645 336.353C573.629 336.331 573.618 336.314 573.61 336.301C573.626 336.299 573.646 336.297 573.673 336.298C573.761 336.301 573.888 336.324 574.048 336.369C574.366 336.458 574.787 336.628 575.235 336.857C575.684 337.086 576.068 337.328 576.327 337.533C576.457 337.636 576.55 337.725 576.604 337.795C576.62 337.817 576.631 337.834 576.639 337.848C576.623 337.85 576.603 337.851 576.576 337.85C576.488 337.847 576.361 337.824 576.201 337.779C575.883 337.69 575.462 337.52 575.014 337.291Z" fill="white" stroke="black" stroke-width="0.25"/>
<path d="M574.473 345.493C574.569 344.815 574.71 344.212 574.86 343.787C574.935 343.573 575.01 343.41 575.078 343.306C575.113 343.253 575.142 343.222 575.163 343.205C575.169 343.201 575.173 343.198 575.176 343.197C575.179 343.199 575.182 343.203 575.186 343.208C575.202 343.23 575.221 343.269 575.24 343.329C575.277 343.448 575.304 343.625 575.317 343.852C575.343 344.302 575.312 344.92 575.216 345.598C575.12 346.276 574.979 346.878 574.83 347.304C574.755 347.517 574.68 347.68 574.611 347.785C574.576 347.837 574.547 347.869 574.526 347.886C574.52 347.89 574.516 347.892 574.513 347.894C574.51 347.892 574.507 347.888 574.503 347.882C574.487 347.86 574.468 347.822 574.449 347.762C574.412 347.642 574.385 347.465 574.372 347.239C574.346 346.789 574.378 346.171 574.473 345.493ZM575.183 343.194C575.183 343.194 575.183 343.194 575.182 343.194L575.183 343.194ZM575.171 343.192C575.171 343.192 575.171 343.192 575.171 343.192L575.171 343.192ZM574.507 347.897C574.507 347.897 574.506 347.897 574.506 347.897C574.506 347.897 574.507 347.897 574.507 347.897ZM574.518 347.898C574.518 347.899 574.519 347.899 574.519 347.899C574.519 347.899 574.518 347.899 574.518 347.898Z" fill="white" stroke="black" stroke-width="0.25"/>
<circle cx="563.845" cy="332.845" r="23.7198" fill="white" fill-opacity="0.7" stroke="black" stroke-width="0.25"/>
<path d="M562.717 348.193C563.361 347.96 563.959 347.802 564.405 347.735C564.629 347.701 564.808 347.691 564.933 347.703C564.995 347.709 565.037 347.72 565.062 347.731C565.068 347.734 565.072 347.737 565.075 347.739C565.074 347.742 565.072 347.747 565.069 347.753C565.058 347.777 565.033 347.812 564.988 347.857C564.9 347.946 564.756 348.052 564.562 348.17C564.177 348.403 563.616 348.665 562.972 348.898C562.328 349.131 561.73 349.288 561.284 349.355C561.06 349.389 560.881 349.399 560.756 349.387C560.694 349.381 560.652 349.371 560.627 349.359C560.621 349.356 560.617 349.354 560.614 349.352C560.615 349.349 560.617 349.344 560.62 349.338C560.631 349.313 560.656 349.278 560.701 349.234C560.789 349.145 560.933 349.038 561.127 348.921C561.512 348.687 562.073 348.426 562.717 348.193ZM565.081 347.743C565.081 347.743 565.081 347.743 565.081 347.743L565.081 347.743ZM565.077 347.732C565.077 347.732 565.077 347.731 565.077 347.731L565.077 347.732ZM560.609 349.348C560.608 349.348 560.608 349.348 560.608 349.348C560.608 349.348 560.608 349.348 560.609 349.348ZM560.612 349.358C560.612 349.359 560.612 349.359 560.612 349.359C560.612 349.359 560.612 349.359 560.612 349.358Z" fill="white" stroke="black" stroke-width="0.25"/>
<path d="M554.705 341.994C555.302 342.33 555.811 342.681 556.153 342.976C556.325 343.123 556.449 343.253 556.521 343.355C556.557 343.406 556.576 343.445 556.584 343.471C556.586 343.477 556.587 343.482 556.587 343.486C556.584 343.487 556.579 343.489 556.573 343.491C556.546 343.498 556.504 343.501 556.441 343.497C556.316 343.488 556.141 343.448 555.926 343.378C555.497 343.238 554.933 342.983 554.337 342.647C553.74 342.311 553.231 341.96 552.889 341.665C552.717 341.518 552.593 341.388 552.521 341.286C552.485 341.235 552.466 341.196 552.458 341.17C552.456 341.164 552.455 341.159 552.455 341.155C552.458 341.154 552.463 341.152 552.469 341.15C552.496 341.143 552.538 341.14 552.601 341.144C552.726 341.153 552.901 341.193 553.116 341.263C553.545 341.403 554.109 341.658 554.705 341.994ZM556.588 343.493C556.588 343.493 556.588 343.493 556.588 343.492L556.588 343.493ZM556.593 343.483C556.593 343.482 556.594 343.482 556.594 343.482L556.593 343.483ZM552.454 341.149C552.454 341.148 552.455 341.148 552.455 341.148C552.455 341.148 552.455 341.148 552.454 341.149ZM552.449 341.158C552.449 341.159 552.449 341.159 552.449 341.159C552.448 341.159 552.449 341.159 552.449 341.158Z" fill="white" stroke="black" stroke-width="0.25"/>
<path d="M573.809 315.887C574.185 316.099 574.506 316.32 574.719 316.504C574.827 316.596 574.902 316.675 574.945 316.736C574.95 316.742 574.954 316.749 574.958 316.755C574.951 316.754 574.943 316.754 574.935 316.754C574.861 316.748 574.754 316.725 574.619 316.68C574.352 316.593 573.997 316.433 573.621 316.221C573.245 316.009 572.925 315.788 572.711 315.604C572.604 315.512 572.528 315.433 572.485 315.372C572.481 315.365 572.476 315.359 572.473 315.353C572.48 315.353 572.487 315.354 572.496 315.354C572.569 315.36 572.676 315.383 572.811 315.428C573.079 315.515 573.433 315.675 573.809 315.887Z" fill="white" stroke="black" stroke-width="0.25"/>
<path d="M547.791 334.737C547.358 335.268 546.926 335.711 546.578 335.998C546.404 336.142 546.256 336.242 546.143 336.296C546.086 336.324 546.045 336.336 546.018 336.339C546.011 336.34 546.006 336.34 546.002 336.34C546.001 336.336 546.001 336.331 546 336.324C545.997 336.297 546.001 336.254 546.016 336.193C546.046 336.072 546.114 335.906 546.22 335.706C546.431 335.307 546.777 334.794 547.209 334.263C547.641 333.732 548.074 333.289 548.422 333.002C548.596 332.858 548.744 332.757 548.857 332.704C548.914 332.676 548.955 332.664 548.982 332.661C548.989 332.66 548.994 332.66 548.998 332.66C548.999 332.664 548.999 332.669 549 332.676C549.002 332.703 548.999 332.746 548.984 332.807C548.954 332.928 548.886 333.094 548.78 333.294C548.569 333.693 548.223 334.206 547.791 334.737ZM545.995 336.339C545.995 336.339 545.995 336.339 545.996 336.339L545.995 336.339ZM546.004 336.346C546.005 336.346 546.005 336.346 546.005 336.346L546.004 336.346ZM549.004 332.661C549.005 332.661 549.005 332.661 549.005 332.661C549.005 332.661 549.005 332.661 549.004 332.661ZM548.996 332.654C548.995 332.654 548.995 332.654 548.995 332.654C548.995 332.654 548.995 332.654 548.996 332.654Z" fill="white" stroke="black" stroke-width="0.25"/>
<path d="M561.804 336.28C562.205 336.835 562.522 337.367 562.709 337.777C562.804 337.983 562.862 338.152 562.885 338.275C562.897 338.337 562.898 338.38 562.894 338.407C562.893 338.413 562.892 338.418 562.891 338.422C562.887 338.421 562.882 338.421 562.876 338.42C562.849 338.415 562.808 338.401 562.753 338.371C562.644 338.31 562.501 338.201 562.335 338.048C562.004 337.741 561.598 337.275 561.196 336.72C560.795 336.165 560.478 335.633 560.291 335.223C560.196 335.017 560.138 334.848 560.115 334.725C560.103 334.663 560.102 334.62 560.106 334.593C560.107 334.587 560.108 334.582 560.109 334.578C560.113 334.579 560.118 334.579 560.124 334.58C560.151 334.585 560.192 334.599 560.247 334.629C560.356 334.69 560.499 334.799 560.665 334.952C560.996 335.259 561.402 335.725 561.804 336.28ZM562.888 338.428C562.888 338.428 562.888 338.428 562.889 338.428L562.888 338.428ZM562.897 338.421C562.898 338.421 562.898 338.421 562.898 338.421L562.897 338.421ZM560.111 334.572C560.112 334.572 560.112 334.572 560.112 334.572C560.112 334.572 560.112 334.572 560.111 334.572ZM560.103 334.579C560.102 334.579 560.102 334.579 560.102 334.579C560.102 334.579 560.102 334.579 560.103 334.579Z" fill="white" stroke="black" stroke-width="0.25"/>
<circle cx="241.5" cy="430.5" r="11" fill="white" stroke="black"/>
<circle cx="241.5" cy="430.5" r="1.25" fill="white" stroke="black" stroke-width="0.5"/>
<circle cx="241.5" cy="406.5" r="11" fill="white" stroke="black"/>
<circle cx="241.5" cy="406.5" r="1.25" fill="white" stroke="black" stroke-width="0.5"/>
<circle cx="265.5" cy="406.5" r="11" fill="white" stroke="black"/>
<circle cx="318" cy="405" r="12.5" fill="white" stroke="black"/>
<circle cx="344" cy="405" r="12.5" fill="white" stroke="black"/>
<circle cx="318" cy="431" r="12.5" fill="white" stroke="black"/>
<circle cx="344" cy="431" r="12.5" fill="white" stroke="black"/>
<circle cx="265.5" cy="406.5" r="1.25" fill="white" stroke="black" stroke-width="0.5"/>
<circle cx="265.5" cy="430.5" r="11" fill="white" stroke="black"/>
<circle cx="265.5" cy="430.5" r="1.25" fill="white" stroke="black" stroke-width="0.5"/>
<circle cx="253.5" cy="418.5" r="11" fill="white" stroke="black"/>
<circle cx="253.5" cy="418.5" r="1.25" fill="white" stroke="black" stroke-width="0.5"/>
<circle cx="253.5" cy="418.5" r="6.25" stroke="black" stroke-width="0.5"/>
<circle cx="391.529" cy="418.5" r="11" transform="rotate(45 391.529 418.5)" fill="white" stroke="black"/>
<circle cx="391.529" cy="418.5" r="1.25" transform="rotate(45 391.529 418.5)" fill="white" stroke="black" stroke-width="0.5"/>
<circle cx="408.5" cy="401.53" r="11" transform="rotate(45 408.5 401.53)" fill="white" stroke="black"/>
<circle cx="408.5" cy="401.53" r="1.25" transform="rotate(45 408.5 401.53)" fill="white" stroke="black" stroke-width="0.5"/>
<circle cx="425.471" cy="418.5" r="11" transform="rotate(45 425.471 418.5)" fill="white" stroke="black"/>
<circle cx="425.471" cy="418.5" r="1.25" transform="rotate(45 425.471 418.5)" fill="white" stroke="black" stroke-width="0.5"/>
<circle cx="408.5" cy="435.47" r="11" transform="rotate(45 408.5 435.47)" fill="white" stroke="black"/>
<circle cx="408.5" cy="435.47" r="1.25" transform="rotate(45 408.5 435.47)" fill="white" stroke="black" stroke-width="0.5"/>
<circle cx="408.5" cy="418.5" r="11" transform="rotate(45 408.5 418.5)" fill="white" stroke="black"/>
<circle cx="408.5" cy="418.5" r="1.25" transform="rotate(45 408.5 418.5)" fill="white" stroke="black" stroke-width="0.5"/>
<circle cx="408.5" cy="418.5" r="6.25" transform="rotate(45 408.5 418.5)" stroke="black" stroke-width="0.5"/>
<circle cx="483.263" cy="434.263" r="11" transform="rotate(45 483.263 434.263)" fill="white" stroke="black"/>
<path d="M483.5 427.5V424" stroke="black" stroke-width="0.25"/>
<path d="M483.5 444.5V441" stroke="black" stroke-width="0.25"/>
<path d="M476.5 434.25L473 434.25" stroke="black" stroke-width="0.25"/>
<path d="M493.5 434.25L490 434.25" stroke="black" stroke-width="0.25"/>
<path d="M478.477 439.023L476.002 441.498" stroke="black" stroke-width="0.25"/>
<path d="M490.498 427.002L488.023 429.477" stroke="black" stroke-width="0.25"/>
<path d="M488.023 439.023L490.498 441.498" stroke="black" stroke-width="0.25"/>
<path d="M476.002 427.002L478.477 429.477" stroke="black" stroke-width="0.25"/>
<circle cx="483.263" cy="434.263" r="6.25" transform="rotate(45 483.263 434.263)" stroke="black" stroke-width="0.5"/>
<circle cx="469.263" cy="415.263" r="11" transform="rotate(45 469.263 415.263)" fill="white" stroke="black"/>
<path d="M469.5 408.5V405" stroke="black" stroke-width="0.25"/>
<path d="M469.5 425.5V422" stroke="black" stroke-width="0.25"/>
<path d="M462.5 415.25L459 415.25" stroke="black" stroke-width="0.25"/>
<path d="M479.5 415.25L476 415.25" stroke="black" stroke-width="0.25"/>
<path d="M464.477 420.023L462.002 422.498" stroke="black" stroke-width="0.25"/>
<path d="M476.498 408.002L474.023 410.477" stroke="black" stroke-width="0.25"/>
<path d="M474.023 420.023L476.498 422.498" stroke="black" stroke-width="0.25"/>
<path d="M462.002 408.002L464.477 410.477" stroke="black" stroke-width="0.25"/>
<circle cx="469.263" cy="415.263" r="6.25" transform="rotate(45 469.263 415.263)" stroke="black" stroke-width="0.5"/>
<circle cx="487.263" cy="399.263" r="11" transform="rotate(45 487.263 399.263)" fill="white" stroke="black"/>
<path d="M487.5 392.5V389" stroke="black" stroke-width="0.25"/>
<path d="M487.5 409.5V406" stroke="black" stroke-width="0.25"/>
<path d="M480.5 399.25L477 399.25" stroke="black" stroke-width="0.25"/>
<path d="M497.5 399.25L494 399.25" stroke="black" stroke-width="0.25"/>
<path d="M482.477 404.023L480.002 406.498" stroke="black" stroke-width="0.25"/>
<path d="M494.498 392.002L492.023 394.477" stroke="black" stroke-width="0.25"/>
<path d="M492.023 404.023L494.498 406.498" stroke="black" stroke-width="0.25"/>
<path d="M480.002 392.002L482.477 394.477" stroke="black" stroke-width="0.25"/>
<circle cx="487.263" cy="399.263" r="6.25" transform="rotate(45 487.263 399.263)" stroke="black" stroke-width="0.5"/>
<circle cx="502.263" cy="419.263" r="11" transform="rotate(45 502.263 419.263)" fill="white" stroke="black"/>
<path d="M502.5 412.5V409" stroke="black" stroke-width="0.25"/>
<path d="M502.5 429.5V426" stroke="black" stroke-width="0.25"/>
<path d="M495.5 419.25L492 419.25" stroke="black" stroke-width="0.25"/>
<path d="M512.5 419.25L509 419.25" stroke="black" stroke-width="0.25"/>
<path d="M497.477 424.023L495.002 426.498" stroke="black" stroke-width="0.25"/>
<path d="M509.498 412.002L507.023 414.477" stroke="black" stroke-width="0.25"/>
<path d="M507.023 424.023L509.498 426.498" stroke="black" stroke-width="0.25"/>
<path d="M495.002 412.002L497.477 414.477" stroke="black" stroke-width="0.25"/>
<circle cx="502.263" cy="419.263" r="6.25" transform="rotate(45 502.263 419.263)" stroke="black" stroke-width="0.5"/>
<circle cx="475.263" cy="404.263" r="11" transform="rotate(45 475.263 404.263)" fill="white" stroke="black"/>
<path d="M475.5 397.5V394" stroke="black" stroke-width="0.25"/>
<path d="M475.5 414.5V411" stroke="black" stroke-width="0.25"/>
<path d="M468.5 404.25L465 404.25" stroke="black" stroke-width="0.25"/>
<path d="M485.5 404.25L482 404.25" stroke="black" stroke-width="0.25"/>
<path d="M470.477 409.023L468.002 411.498" stroke="black" stroke-width="0.25"/>
<path d="M482.498 397.002L480.023 399.477" stroke="black" stroke-width="0.25"/>
<path d="M480.023 409.023L482.498 411.498" stroke="black" stroke-width="0.25"/>
<path d="M468.002 397.002L470.477 399.477" stroke="black" stroke-width="0.25"/>
<circle cx="475.263" cy="404.263" r="6.25" transform="rotate(45 475.263 404.263)" stroke="black" stroke-width="0.5"/>
<circle cx="499.263" cy="406.263" r="11" transform="rotate(45 499.263 406.263)" fill="white" stroke="black"/>
<path d="M499.5 399.5V396" stroke="black" stroke-width="0.25"/>
<path d="M499.5 416.5V413" stroke="black" stroke-width="0.25"/>
<path d="M492.5 406.25L489 406.25" stroke="black" stroke-width="0.25"/>
<path d="M509.5 406.25L506 406.25" stroke="black" stroke-width="0.25"/>
<path d="M494.477 411.023L492.002 413.498" stroke="black" stroke-width="0.25"/>
<path d="M506.498 399.002L504.023 401.477" stroke="black" stroke-width="0.25"/>
<path d="M504.023 411.023L506.498 413.498" stroke="black" stroke-width="0.25"/>
<path d="M492.002 399.002L494.477 401.477" stroke="black" stroke-width="0.25"/>
<circle cx="499.263" cy="406.263" r="6.25" transform="rotate(45 499.263 406.263)" stroke="black" stroke-width="0.5"/>
<circle cx="493.263" cy="430.263" r="11" transform="rotate(45 493.263 430.263)" fill="white" stroke="black"/>
<path d="M493.5 423.5V420" stroke="black" stroke-width="0.25"/>
<path d="M493.5 440.5V437" stroke="black" stroke-width="0.25"/>
<path d="M486.5 430.25L483 430.25" stroke="black" stroke-width="0.25"/>
<path d="M503.5 430.25L500 430.25" stroke="black" stroke-width="0.25"/>
<path d="M488.477 435.023L486.002 437.498" stroke="black" stroke-width="0.25"/>
<path d="M500.498 423.002L498.023 425.477" stroke="black" stroke-width="0.25"/>
<path d="M498.023 435.023L500.498 437.498" stroke="black" stroke-width="0.25"/>
<path d="M486.002 423.002L488.477 425.477" stroke="black" stroke-width="0.25"/>
<circle cx="493.263" cy="430.263" r="6.25" transform="rotate(45 493.263 430.263)" stroke="black" stroke-width="0.5"/>
<circle cx="470.263" cy="427.263" r="11" transform="rotate(45 470.263 427.263)" fill="white" stroke="black"/>
<path d="M470.5 420.5V417" stroke="black" stroke-width="0.25"/>
<path d="M470.5 437.5V434" stroke="black" stroke-width="0.25"/>
<path d="M463.5 427.25L460 427.25" stroke="black" stroke-width="0.25"/>
<path d="M480.5 427.25L477 427.25" stroke="black" stroke-width="0.25"/>
<path d="M465.477 432.023L463.002 434.498" stroke="black" stroke-width="0.25"/>
<path d="M477.498 420.002L475.023 422.477" stroke="black" stroke-width="0.25"/>
<path d="M475.023 432.023L477.498 434.498" stroke="black" stroke-width="0.25"/>
<path d="M463.002 420.002L465.477 422.477" stroke="black" stroke-width="0.25"/>
<circle cx="470.263" cy="427.263" r="6.25" transform="rotate(45 470.263 427.263)" stroke="black" stroke-width="0.5"/>
<circle cx="331" cy="416" r="12.5" fill="white" stroke="black"/>
<circle cx="331.5" cy="415.5" r="1.25" fill="white" stroke="black" stroke-width="0.5"/>
<circle cx="344.5" cy="404.5" r="1.25" fill="white" stroke="black" stroke-width="0.5"/>
<circle cx="318.5" cy="405.5" r="1.25" fill="white" stroke="black" stroke-width="0.5"/>
<circle cx="317.5" cy="431.5" r="1.25" fill="white" stroke="black" stroke-width="0.5"/>
<circle cx="344.5" cy="431.5" r="1.25" fill="white" stroke="black" stroke-width="0.5"/>
<path d="M110 404H106.5C105.833 406.167 104.9 411 106.5 413H110C111.2 409.4 110.5 405.5 110 404Z" fill="white" stroke="black" stroke-width="0.5"/>
<path d="M120.383 399H116.883C116.217 401.167 115.283 406 116.883 408H120.383C121.583 404.4 120.883 400.5 120.383 399Z" fill="white" stroke="black" stroke-width="0.5"/>
<path d="M105.383 394H101.883C101.217 396.167 100.283 401 101.883 403H105.383C106.583 399.4 105.883 395.5 105.383 394Z" fill="white" stroke="black" stroke-width="0.5"/>
<path d="M96.3834 394H92.8834C92.2168 396.167 91.2834 401 92.8834 403H96.3834C97.5834 399.4 96.8834 395.5 96.3834 394Z" fill="white" stroke="black" stroke-width="0.5"/>
<path d="M102.987 407.556L100.47 405.124C98.4851 406.22 94.456 409.048 94.2175 411.598L96.7351 414.029C100.099 412.274 102.305 408.982 102.987 407.556Z" fill="white" stroke="black" stroke-width="0.5"/>
<path d="M105.405 417.045L102.888 414.614C100.903 415.709 96.874 418.537 96.6355 421.087L99.153 423.519C102.517 421.763 104.723 418.471 105.405 417.045Z" fill="white" stroke="black" stroke-width="0.5"/>
<path d="M103.405 426.045L100.888 423.614C98.903 424.709 94.874 427.537 94.6355 430.087L97.153 432.519C100.517 430.763 102.723 427.471 103.405 426.045Z" fill="white" stroke="black" stroke-width="0.5"/>
<path d="M113.405 427.045L110.888 424.614C108.903 425.709 104.874 428.537 104.635 431.087L107.153 433.519C110.517 431.763 112.723 428.471 113.405 427.045Z" fill="white" stroke="black" stroke-width="0.5"/>
<path d="M102.405 435.045L99.8877 432.614C97.903 433.709 93.874 436.537 93.6355 439.087L96.153 441.519C99.5171 439.763 101.723 436.471 102.405 435.045Z" fill="white" stroke="black" stroke-width="0.5"/>
<path d="M118.771 415.12L116.024 412.952C114.158 414.24 110.431 417.456 110.448 420.017L113.196 422.185C116.368 420.102 118.234 416.607 118.771 415.12Z" fill="white" stroke="black" stroke-width="0.5"/>
<path d="M122.016 427.716L119.269 425.547C117.403 426.835 113.676 430.051 113.693 432.612L116.441 434.781C119.613 432.698 121.48 429.203 122.016 427.716Z" fill="white" stroke="black" stroke-width="0.5"/>
<path d="M119.563 406.947L118.811 403.528C116.552 403.342 111.631 403.468 110.021 405.46L110.773 408.879C114.546 409.278 118.205 407.757 119.563 406.947Z" fill="white" stroke="black" stroke-width="0.5"/>
<path d="M105.731 403.281L104.98 399.863C102.721 399.677 97.7995 399.803 96.1897 401.795L96.9411 405.213C100.715 405.613 104.374 404.092 105.731 403.281Z" fill="white" stroke="black" stroke-width="0.5"/>
<path d="M117.731 401.281L116.98 397.863C114.721 397.677 109.8 397.803 108.19 399.795L108.941 403.213C112.715 403.613 116.374 402.092 117.731 401.281Z" fill="white" stroke="black" stroke-width="0.5"/>
<path d="M110.814 416.805L111.503 413.373C109.51 412.293 104.954 410.427 102.679 411.603L101.99 415.034C105.284 416.919 109.245 417 110.814 416.805Z" fill="white" stroke="black" stroke-width="0.5"/>
<path d="M121.954 414.068L122.643 410.637C120.65 409.557 116.095 407.691 113.819 408.866L113.13 412.298C116.424 414.183 120.385 414.263 121.954 414.068Z" fill="white" stroke="black" stroke-width="0.5"/>
<path d="M117.954 427.068L118.643 423.637C116.65 422.557 112.095 420.691 109.819 421.866L109.13 425.298C112.424 427.183 116.385 427.263 117.954 427.068Z" fill="white" stroke="black" stroke-width="0.5"/>
<path d="M113.954 439.068L114.643 435.637C112.65 434.557 108.095 432.691 105.819 433.866L105.13 437.298C108.424 439.183 112.385 439.263 113.954 439.068Z" fill="white" stroke="black" stroke-width="0.5"/>
<path d="M105.07 415.652L101.974 417.284C102.395 419.512 103.823 424.222 106.171 425.245L109.267 423.613C108.65 419.869 106.212 416.745 105.07 415.652Z" fill="white" stroke="black" stroke-width="0.5"/>
<path d="M118.877 416.309L115.781 417.941C116.202 420.169 117.631 424.88 119.979 425.903L123.075 424.27C122.458 420.526 120.019 417.403 118.877 416.309Z" fill="white" stroke="black" stroke-width="0.5"/>
<path d="M103.877 425.309L100.781 426.941C101.202 429.169 102.631 433.88 104.979 434.903L108.075 433.27C107.458 429.526 105.019 426.403 103.877 425.309Z" fill="white" stroke="black" stroke-width="0.5"/>
<path d="M104.877 435.309L101.781 436.941C102.202 439.169 103.631 443.88 105.979 444.903L109.075 443.27C108.458 439.526 106.019 436.403 104.877 435.309Z" fill="white" stroke="black" stroke-width="0.5"/>
<path d="M92.8775 431.309L89.7815 432.941C90.2023 435.169 91.6309 439.88 93.9791 440.903L97.0751 439.27C96.4575 435.526 94.0194 432.403 92.8775 431.309Z" fill="white" stroke="black" stroke-width="0.5"/>
<path d="M97.9617 427.732L96.1256 424.752C93.9313 425.321 89.3268 427.062 88.4634 429.473L90.2995 432.453C93.9939 431.586 96.947 428.944 97.9617 427.732Z" fill="white" stroke="black" stroke-width="0.5"/>
<path d="M104.962 441.732L103.126 438.752C100.931 439.321 96.3268 441.062 95.4634 443.473L97.2995 446.453C100.994 445.586 103.947 442.944 104.962 441.732Z" fill="white" stroke="black" stroke-width="0.5"/>
<path d="M93.9617 436.732L92.1256 433.752C89.9313 434.321 85.3268 436.062 84.4634 438.473L86.2995 441.453C89.9939 440.586 92.947 437.944 93.9617 436.732Z" fill="white" stroke="black" stroke-width="0.5"/>
<path d="M97.3588 406.34L96.5783 409.752C98.5417 410.885 103.045 412.873 105.352 411.759L106.132 408.347C102.89 406.375 98.9326 406.187 97.3588 406.34Z" fill="white" stroke="black" stroke-width="0.5"/>
<path d="M86.9776 401.646L86.197 405.058C88.1604 406.191 92.6639 408.179 94.9704 407.065L95.7509 403.653C92.5092 401.68 88.5513 401.493 86.9776 401.646Z" fill="white" stroke="black" stroke-width="0.5"/>
<path d="M91.3542 406.076L87.8776 406.48C87.465 408.709 87.0948 413.617 88.9146 415.42L92.3913 415.017C93.1685 411.302 92.0238 407.509 91.3542 406.076Z" fill="white" stroke="black" stroke-width="0.5"/>
<path d="M73.3542 412.076L69.8776 412.48C69.465 414.709 69.0948 419.617 70.9146 421.42L74.3913 421.017C75.1685 417.302 74.0238 413.509 73.3542 412.076Z" fill="white" stroke="black" stroke-width="0.5"/>
<path d="M75.3542 405.076L71.8776 405.48C71.465 407.709 71.0948 412.617 72.9146 414.42L76.3913 414.017C77.1685 410.302 76.0238 406.509 75.3542 405.076Z" fill="white" stroke="black" stroke-width="0.5"/>
<path d="M82.3542 403.076L78.8776 403.48C78.465 405.709 78.0948 410.617 79.9146 412.42L83.3913 412.017C84.1685 408.302 83.0238 404.509 82.3542 403.076Z" fill="white" stroke="black" stroke-width="0.5"/>
<path d="M88.3542 417.076L84.8776 417.48C84.465 419.709 84.0948 424.617 85.9146 426.42L89.3913 426.017C90.1685 422.302 89.0238 418.509 88.3542 417.076Z" fill="white" stroke="black" stroke-width="0.5"/>
<path d="M81.3542 424.076L77.8776 424.48C77.465 426.709 77.0948 431.617 78.9146 433.42L82.3913 433.017C83.1685 429.302 82.0238 425.509 81.3542 424.076Z" fill="white" stroke="black" stroke-width="0.5"/>
<path d="M90.9353 419.015L88.082 421.042C88.7933 423.194 90.8315 427.675 93.2942 428.379L96.1475 426.352C95.0409 422.722 92.2116 419.948 90.9353 419.015Z" fill="white" stroke="black" stroke-width="0.5"/>
<path d="M83.5735 423.384L80.7202 425.411C81.4315 427.563 83.4697 432.044 85.9324 432.748L88.7857 430.721C87.6791 427.091 84.8499 424.317 83.5735 423.384Z" fill="white" stroke="black" stroke-width="0.5"/>
<path d="M83.5735 430.384L80.7202 432.411C81.4315 434.563 83.4697 439.044 85.9324 439.748L88.7857 437.721C87.6791 434.091 84.8499 431.317 83.5735 430.384Z" fill="white" stroke="black" stroke-width="0.5"/>
<path d="M110.574 393.384L107.72 395.411C108.432 397.563 110.47 402.044 112.932 402.748L115.786 400.721C114.679 397.091 111.85 394.317 110.574 393.384Z" fill="white" stroke="black" stroke-width="0.5"/>
<path d="M91.2246 415.674L92.411 418.967C94.6754 418.86 99.539 418.099 100.878 415.916L99.6917 412.623C95.8981 412.715 92.4663 414.695 91.2246 415.674Z" fill="white" stroke="black" stroke-width="0.5"/>
<path d="M82.2246 399.674L83.411 402.967C85.6754 402.86 90.539 402.099 91.8782 399.916L90.6917 396.623C86.8981 396.715 83.4663 398.695 82.2246 399.674Z" fill="white" stroke="black" stroke-width="0.5"/>
<path d="M78.2246 413.674L79.411 416.967C81.6754 416.86 86.539 416.099 87.8782 413.916L86.6917 410.623C82.8981 410.715 79.4663 412.695 78.2246 413.674Z" fill="white" stroke="black" stroke-width="0.5"/>
<path d="M72.2246 407.674L73.411 410.967C75.6754 410.86 80.539 410.099 81.8782 407.916L80.6917 404.623C76.8981 404.715 73.4663 406.695 72.2246 407.674Z" fill="white" stroke="black" stroke-width="0.5"/>
<path d="M71.2246 421.674L72.411 424.967C74.6754 424.86 79.539 424.099 80.8782 421.916L79.6917 418.623C75.8981 418.715 72.4663 420.695 71.2246 421.674Z" fill="white" stroke="black" stroke-width="0.5"/>
<path d="M70.2246 428.674L71.411 431.967C73.6754 431.86 78.539 431.099 79.8782 428.916L78.6917 425.623C74.8981 425.715 71.4663 427.695 70.2246 428.674Z" fill="white" stroke="black" stroke-width="0.5"/>
<path d="M93.2246 393.674L94.411 396.967C96.6754 396.86 101.539 396.099 102.878 393.916L101.692 390.623C97.8981 390.715 94.4663 392.695 93.2246 393.674Z" fill="white" stroke="black" stroke-width="0.5"/>
<rect x="543.5" y="392.5" width="42" height="8" rx="4" fill="white" stroke="black"/>
<rect x="543.5" y="403.5" width="42" height="8" rx="4" fill="white" stroke="black"/>
<rect x="543.5" y="414.5" width="42" height="8" rx="4" fill="white" stroke="black"/>
<rect x="543.5" y="425.5" width="42" height="8" rx="4" fill="white" stroke="black"/>
<rect x="543.5" y="436.5" width="42" height="8" rx="4" fill="white" stroke="black"/>
<rect x="543.5" y="398.5" width="42" height="8" rx="4" fill="white" stroke="black"/>
<rect x="543.5" y="409.5" width="42" height="8" rx="4" fill="white" stroke="black"/>
<rect x="543.5" y="420.5" width="42" height="8" rx="4" fill="white" stroke="black"/>
<rect x="543.5" y="430.5" width="42" height="8" rx="4" fill="white" stroke="black"/>
<rect x="280" y="1" width="103" height="23" stroke="black" stroke-width="2"/>
<line x1="383.052" y1="1.24449" x2="280.052" y2="23.2445" stroke="black" stroke-width="0.5"/>
<line y1="-0.25" x2="105.323" y2="-0.25" transform="matrix(0.977941 0.208881 0.208881 -0.977941 280 1)" stroke="black" stroke-width="0.5"/>
</svg>
